<?xml version="1.0" encoding="iso-8859-1"?>
<!-- Generator: Adobe Illustrator 23.0.3, SVG Export Plug-In . SVG Version: 6.00 Build 0)  -->
<svg version="1.1" id="&#x421;&#x43B;&#x43E;&#x439;_1"
	 xmlns="http://www.w3.org/2000/svg" xmlns:xlink="http://www.w3.org/1999/xlink" x="0px" y="0px" viewBox="-243 245 512 450"
	 style="enable-background:new -243 245 512 450;" xml:space="preserve" width="45px">
<path fill="#888888" d="M-32,485h90v30h-90V485z"/>
<path fill="#888888" d="M172.379,515H88v15c0,8.289-6.711,15-15,15H-47c-8.289,0-15-6.711-15-15v-15h-84.379c-19.395,0-36.547-12.363-42.688-30.762
	L-243,322.41V650c0,24.813,20.188,45,45,45h422c24.812,0,45-20.188,45-45V322.422l-53.938,161.816
	C208.926,502.637,191.773,515,172.379,515z"/>
<path fill="#888888" d="M73,245H-47c-24.813,0-45,20.188-45,45v15h-125.191l56.574,169.746c2.051,6.137,7.777,10.254,14.238,10.254H-62v-15
	c0-8.289,6.711-15,15-15H73c8.289,0,15,6.711,15,15v15h84.379c6.461,0,12.188-4.117,14.238-10.254L243.195,305H118v-15
	C118,265.188,97.812,245,73,245z M-62,305v-15c0-8.277,6.723-15,15-15H73c8.277,0,15,6.723,15,15v15H-62z"/>
</svg>
