<?xml version="1.0" encoding="iso-8859-1"?>
<!-- Generator: Adobe Illustrator 23.0.3, SVG Export Plug-In . SVG Version: 6.00 Build 0)  -->
<svg version="1.1" id="&#x421;&#x43B;&#x43E;&#x439;_1"
	 xmlns="http://www.w3.org/2000/svg" xmlns:xlink="http://www.w3.org/1999/xlink" x="0px" y="0px" viewBox="-703 35 512 512"
	 style="enable-background:new -703 35 512 512;" xml:space="preserve">
<path fill="#ffffff"  d="M-500,411c0,5.523-4.477,10-10,10s-10-4.477-10-10s4.477-10,10-10S-500,405.477-500,411z"/>
<path fill="#ffffff"  d="M-251,417h-50v-50c0-5.523-4.477-10-10-10s-10,4.477-10,10v60c0,5.523,4.477,10,10,10h60c5.523,0,10-4.477,10-10
	S-245.477,417-251,417z"/>
<path fill="#ffffff"  d="M-633,241h63c5.523,0,10-4.477,10-10s-4.477-10-10-10h-63c-5.523,0-10,4.477-10,10S-638.523,241-633,241z"/>
<path fill="#ffffff"  d="M-447,221h-63c-5.523,0-10,4.477-10,10s4.477,10,10,10h63c5.523,0,10-4.477,10-10S-441.477,221-447,221z"/>
<path fill="#ffffff"  d="M-633,301h63c5.523,0,10-4.477,10-10s-4.477-10-10-10h-63c-5.523,0-10,4.477-10,10S-638.523,301-633,301z"/>
<path fill="#ffffff"  d="M-550,401h-83c-5.523,0-10,4.477-10,10s4.477,10,10,10h83c5.523,0,10-4.477,10-10S-544.477,401-550,401z"/>
<path fill="#ffffff"  d="M-447,281h-63c-5.523,0-10,4.477-10,10s4.477,10,10,10h63c5.523,0,10-4.477,10-10S-441.477,281-447,281z"/>
<path fill="#ffffff" d="M-633,361h63c5.523,0,10-4.477,10-10s-4.477-10-10-10h-63c-5.523,0-10,4.477-10,10S-638.523,361-633,361z"/>
<path fill="#ffffff"  d="M-447,341h-63c-5.523,0-10,4.477-10,10s4.477,10,10,10h63c5.523,0,10-4.477,10-10S-441.477,341-447,341z"/>
<path fill="#ffffff"  d="M-387,241h60c5.523,0,10-4.477,10-10s-4.477-10-10-10h-60c-5.523,0-10,4.477-10,10S-392.523,241-387,241z"/>
<path fill="#ffffff"  d="M-257,319.836V105c0-16.543-13.457-30-30-30h-30V65c0-16.574-13.426-30-30-30c-16.543,0-30,13.457-30,30v10h-83V65
	c0-16.574-13.426-30-30-30c-16.543,0-30,13.457-30,30v10h-83V65c0-16.574-13.426-30-30-30c-16.543,0-30,13.457-30,30v10h-10
	c-16.543,0-30,13.457-30,30v326c0,16.543,13.457,30,30,30h246.922c15.09,50.988,61.906,86,115.078,86c66.168,0,120-53.832,120-120
	C-191,381.5-216.703,340.148-257,319.836z M-357,65c0-5.516,4.484-10,10-10c5.52,0,10,4.477,10,10v40c0,5.516-4.484,10-10,10
	s-10-4.484-10-10V65z M-500,65c0-5.516,4.484-10,10-10c5.52,0,10,4.477,10,10v40c0,5.516-4.484,10-10,10s-10-4.484-10-10V65z
	 M-643,65c0-5.516,4.484-10,10-10c5.52,0,10,4.477,10,10v40c0,5.516-4.484,10-10,10s-10-4.484-10-10V65z M-673,95h10v10
	c0,16.543,13.457,30,30,30s30-13.457,30-30V95h83v10c0,16.543,13.457,30,30,30s30-13.457,30-30V95h83v10c0,16.543,13.457,30,30,30
	s30-13.457,30-30V95h30c5.516,0,10,4.484,10,10v53h-406v-53C-683,99.484-678.516,95-673,95z M-683,431V178h406v133.891
	c-10.973-3.246-22.355-4.891-34-4.891c-66.168,0-120,53.832-120,120c0,4.68,0.281,9.359,0.82,14H-673
	C-678.516,441-683,436.516-683,431z M-311,527c-53.602,0-100-43.676-100-100c0-55.141,44.859-100,100-100
	c55.34,0,100,44.898,100,100C-211,482.141-255.859,527-311,527z"/>
</svg>
