<?xml version="1.0" encoding="iso-8859-1"?>
<!-- Generator: Adobe Illustrator 23.0.3, SVG Export Plug-In . SVG Version: 6.00 Build 0)  -->
<svg version="1.1" id="Capa_1" xmlns="http://www.w3.org/2000/svg" xmlns:xlink="http://www.w3.org/1999/xlink" x="0px" y="0px"
	 viewBox="-703 81 512 420" style="enable-background:new -703 81 512 420;" xml:space="preserve">
<path fill="#ffffff" d="M-447,421c-5.52,0-10,4.48-10,10s4.48,10,10,10c5.52,0,10-4.48,10-10S-441.48,421-447,421z"/>
<path fill="#ffffff" d="M-233.913,96.37C-258.521,86.459-290.515,81-324,81s-65.479,5.459-90.087,15.37c-14.542,5.857-25.645,13.015-32.913,21.047
	c-7.268-8.032-18.371-15.189-32.913-21.046C-504.521,86.459-536.515,81-570,81s-65.479,5.459-90.087,15.37
	C-687.76,107.516-703,123.366-703,141v240c0,17.634,15.24,33.484,42.913,44.63c22.887,9.218,52.165,14.578,83.087,15.284V441
	c0,34.206,55.888,60,130,60s130-25.794,130-60v-0.086c30.922-0.706,60.2-6.066,83.087-15.284C-206.24,414.484-191,398.634-191,381
	V141C-191,123.366-206.24,107.516-233.913,96.37z M-211,321c0,8.537-11.643,18.529-30.385,26.078
	c-20.285,8.17-47.519,13.113-75.615,13.823V321c0-0.029-0.002-0.058-0.002-0.086c30.923-0.705,60.201-6.065,83.09-15.284
	c8.983-3.618,16.646-7.734,22.913-12.244L-211,321L-211,321z M-457,201c0,8.537-11.643,18.529-30.385,26.078
	C-509.352,235.926-539.464,241-570,241s-60.648-5.074-82.615-13.922C-671.357,219.529-683,209.537-683,201v-27.614
	c6.267,4.51,13.93,8.626,22.913,12.244C-635.479,195.541-603.485,201-570,201s65.479-5.459,90.087-15.37
	c8.983-3.618,16.646-7.734,22.913-12.244V201z M-660.087,245.63C-635.479,255.541-603.485,261-570,261s65.479-5.459,90.087-15.37
	c8.983-3.618,16.646-7.734,22.913-12.244v27.791c-25.87,0.876-50.68,5.122-70.747,12.189c-20.127,7.089-34.61,16.542-42.486,27.631
	c-30.456-0.026-60.471-5.094-82.382-13.919C-671.357,279.529-683,269.537-683,261v-27.614
	C-676.733,237.896-669.07,242.012-660.087,245.63z M-683,293.386c6.267,4.51,13.93,8.626,22.913,12.244
	c22.888,9.218,52.167,14.578,83.09,15.284c0,0.029-0.002,0.058-0.002,0.086v39.901c-28.097-0.71-55.33-5.653-75.615-13.823
	C-671.357,339.529-683,329.537-683,321V293.386z M-555.942,316.087C-548.531,298.84-505.756,281-447,281
	s101.531,17.84,108.934,35.067c0.718,1.681,1.066,3.294,1.066,4.933c0,8.792-10.839,18.558-28.995,26.123
	C-387.471,356.072-416.239,361-447,361s-59.529-4.928-81.005-13.877C-546.161,339.558-557,329.792-557,321
	C-557,319.361-556.651,317.748-555.942,316.087z M-211,261c0,8.537-11.643,18.529-30.385,26.078
	c-21.91,8.825-51.924,13.893-82.379,13.919c-7.87-11.083-22.355-20.54-42.489-27.631c-20.067-7.068-44.877-11.313-70.747-12.189
	v-27.791c6.267,4.51,13.93,8.626,22.913,12.244C-389.479,255.541-357.485,261-324,261s65.479-5.459,90.087-15.37
	c8.983-3.618,16.646-7.734,22.913-12.244V261z M-211,201c0,8.537-11.643,18.529-30.385,26.078C-263.352,235.926-293.464,241-324,241
	s-60.648-5.074-82.615-13.922C-425.357,219.529-437,209.537-437,201v-27.614c6.267,4.51,13.93,8.626,22.913,12.244
	C-389.479,195.541-357.485,201-324,201s65.479-5.459,90.087-15.37c8.983-3.618,16.646-7.734,22.913-12.244V201z M-406.615,114.922
	C-384.648,106.074-354.536,101-324,101s60.648,5.074,82.615,13.922C-222.643,122.471-211,132.463-211,141
	s-11.643,18.529-30.385,26.078C-263.352,175.926-293.464,181-324,181s-60.648-5.074-82.615-13.922
	C-425.357,159.529-437,149.537-437,141S-425.357,122.471-406.615,114.922z M-652.615,114.922C-630.648,106.074-600.536,101-570,101
	s60.648,5.074,82.615,13.922C-468.643,122.471-457,132.463-457,141s-11.643,18.529-30.385,26.078
	C-509.352,175.926-539.464,181-570,181s-60.648-5.074-82.615-13.922C-671.357,159.529-683,149.537-683,141
	S-671.357,122.471-652.615,114.922z M-652.615,407.078C-671.357,399.529-683,389.537-683,381v-27.614
	c6.267,4.51,13.93,8.626,22.913,12.244c22.887,9.218,52.165,14.578,83.087,15.284v39.988
	C-605.097,420.191-632.33,415.249-652.615,407.078z M-365.995,467.123C-387.471,476.072-416.239,481-447,481
	s-59.529-4.928-81.005-13.877C-546.161,459.558-557,449.792-557,441v-27.031c2.265,1.639,4.768,3.268,7.544,4.874
	c15.529,8.986,36.658,15.633,61.104,19.221c0.493,0.072,0.981,0.107,1.465,0.107c4.88,0,9.151-3.577,9.881-8.549
	c0.802-5.464-2.978-10.544-8.441-11.346C-531.922,411.453-557,393.979-557,381v-27.12c22.634,16.562,62.587,27.12,110,27.12
	s87.366-10.558,110-27.12V381c0,12.979-25.078,30.453-71.553,37.276c-5.464,0.802-9.244,5.882-8.441,11.346
	c0.73,4.973,5.001,8.549,9.881,8.549c0.483,0,0.973-0.035,1.465-0.107c24.445-3.588,45.574-10.234,61.104-19.221
	c2.775-1.606,5.279-3.235,7.544-4.874V441C-337,449.792-347.839,459.558-365.995,467.123z M-241.385,407.078
	c-20.285,8.17-47.519,13.113-75.615,13.823v-39.988c30.922-0.706,60.2-6.066,83.087-15.284c8.983-3.618,16.646-7.734,22.913-12.244
	V381C-211,389.537-222.643,399.529-241.385,407.078z"/>
</svg>
