<?xml version="1.0" encoding="iso-8859-1"?>
<!-- Generator: Adobe Illustrator 23.0.3, SVG Export Plug-In . SVG Version: 6.00 Build 0)  -->
<svg version="1.1" id="&#x421;&#x43B;&#x43E;&#x439;_1"
	 xmlns="http://www.w3.org/2000/svg" xmlns:xlink="http://www.w3.org/1999/xlink" x="0px" y="0px" viewBox="0 0 496 496"
	 style="enable-background:new 0 0 496 496;" xml:space="preserve" width="72px" height="72px">
<path fill="#cab0da" d="M248,192c-4.406,0-8-3.594-8-8h-16c0,10.414,6.711,19.215,16,22.527V224h16v-17.473c9.289-3.313,16-12.113,16-22.527
	c0-13.23-10.77-24-24-24c-4.406,0-8-3.594-8-8s3.594-8,8-8s8,3.594,8,8h16c0-10.414-6.711-19.215-16-22.527V112h-16v17.473
	c-9.289,3.313-16,12.113-16,22.527c0,13.23,10.77,24,24,24c4.406,0,8,3.594,8,8S252.406,192,248,192z"/>
<path fill="#cab0da" d="M352,433.367V366.48c0-31.922-14.063-61.953-38.586-82.383C307.434,279.113,304,271.793,304,264s3.434-15.113,9.414-20.098
	C337.938,223.473,352,193.441,352,161.52V94.527c9.289-3.313,16-12.113,16-22.527V56c0-13.23-10.77-24-24-24H152
	c-13.23,0-24,10.77-24,24v16c0,10.434,6.688,19.328,16,22.633v66.887c0,31.922,14.063,61.953,38.586,82.383
	C188.566,248.887,192,256.207,192,264s-3.434,15.113-9.414,20.098C158.063,304.527,144,334.559,144,366.48v66.992
	c-9.289,3.313-16,12.113-16,22.527v16c0,13.23,10.77,24,24,24h192c13.23,0,24-10.77,24-24v-16
	C368,445.566,361.313,436.672,352,433.367z M192.832,296.391C202.473,288.352,208,276.551,208,264s-5.527-24.352-15.168-32.383
	C171.969,214.223,160,188.672,160,161.52V96h16V80h-24c-4.406,0-8-3.594-8-8V56c0-4.406,3.594-8,8-8h192c4.406,0,8,3.594,8,8v16
	c0,4.406-3.594,8-8,8H192v16h144v65.52c0,27.16-11.969,52.703-32.832,70.09C293.527,239.648,288,251.449,288,264
	s5.527,24.352,15.168,32.383c18.457,15.387,29.91,37.168,32.32,60.793c-2.719,1.281-5.25,2.609-7.473,3.879
	c-6.52,3.73-12.168,6.945-24.047,6.945s-17.52-3.215-24.047-6.945c-7.426-4.246-15.852-9.055-31.984-9.055
	c-16.121,0-24.539,4.809-31.969,9.055c-6.52,3.73-12.145,6.945-24.023,6.945c-11.855,0-17.488-3.215-24-6.945
	c-2.227-1.27-4.73-2.59-7.434-3.871C162.91,333.559,174.367,311.777,192.832,296.391z M352,472c0,4.406-3.594,8-8,8H152
	c-4.406,0-8-3.594-8-8v-16c0-4.406,3.594-8,8-8h152v-16H160v-57.055c7.426,4.238,15.832,9.055,31.945,9.055
	c16.117,0,24.535-4.809,31.965-9.055c6.523-3.73,12.152-6.945,24.027-6.945c11.879,0,17.52,3.215,24.047,6.945
	c7.43,4.246,15.848,9.055,31.984,9.055s24.551-4.809,31.984-9.055c0.016-0.008,0.031-0.016,0.047-0.023V432h-16v16h24
	c4.406,0,8,3.594,8,8V472z"/>
<path fill="#cab0da" d="M240,240h16v16h-16V240z"/>
<path fill="#cab0da" d="M240,272h16v16h-16V272z"/>
<path fill="#cab0da" d="M240,304h16v16h-16V304z"/>
<path fill="#cab0da" d="M112,336v-96h40v-16H96v128h9.566L80,392.902L54.434,352H64v-96H48v80H25.566L80,423.098L134.434,336H112z"/>
<path fill="#cab0da" d="M0,0v240h80v-16H63.359C59.84,199.527,40.473,180.16,16,176.641V63.359C40.473,59.84,59.84,40.473,63.359,16h369.281
	c3.52,24.473,22.887,43.84,47.359,47.359v113.281c-24.473,3.527-43.84,22.887-47.359,47.359H416v16h80V0H0z M47.191,224H16v-31.191
	C31.648,196,44,208.352,47.191,224z M16,47.191V16h31.191C44,31.648,31.648,44,16,47.191z M448.809,16H480v31.191
	C464.352,44,452,31.648,448.809,16z M448.809,224C452,208.352,464.352,196,480,192.809V224H448.809z"/>
<path fill="#cab0da" d="M448,256h-16v120h9.566L416,416.902L390.434,376H400V224h-56v16h40v120h-22.434L416,447.098L470.434,360H448V256z"/>
</svg>
