<?xml version="1.0" encoding="iso-8859-1"?>
<!-- Generator: Adobe Illustrator 23.0.3, SVG Export Plug-In . SVG Version: 6.00 Build 0)  -->
<svg version="1.1" id="&#x421;&#x43B;&#x43E;&#x439;_1"
	 xmlns="http://www.w3.org/2000/svg" xmlns:xlink="http://www.w3.org/1999/xlink" x="0px" y="0px" viewBox="-716 48 486 486"
	 style="enable-background:new -716 48 486 486;" xml:space="preserve">
<path fill="#34094e" d="M-463.811,48c-125.494,0-227.812,102.314-227.812,227.813c0,7.193,0,13.59,0.8,20.784l15.987-1.6
	c-0.8-6.393-0.8-12.79-0.8-19.183c0-116.705,95.121-211.826,211.826-211.826s211.826,95.121,211.826,211.826
	c0,114.304-90.324,207.829-203.832,211.826l17.587-17.587l-11.19-11.19l-37.571,37.571l37.571,37.567l11.19-11.19l-19.183-19.183
	c126.294-3.997,225.412-108.711,221.415-234.206C-239.995,146.318-340.713,48-463.811,48z"/>
<path fill="#34094e" d="M-315.933,143.921h-287.763v143.882h287.763V143.921z M-331.919,271.816h-255.789V159.908h255.789V271.816z"/>
<path fill="#34094e" d="M-459.814,247.836c17.587,0,31.974-14.387,31.974-31.974s-14.387-31.974-31.974-31.974
	c-17.583,0-31.974,14.387-31.974,31.974S-477.397,247.836-459.814,247.836z M-459.814,199.875c8.794,0,15.987,7.193,15.987,15.987
	c0,8.794-7.193,15.987-15.987,15.987s-15.987-7.193-15.987-15.987C-475.801,207.068-468.608,199.875-459.814,199.875z"/>
<path fill="#34094e" d="M-555.735,191.882h15.987v-15.987h-31.974v31.974h15.987V191.882z"/>
<path fill="#34094e" d="M-539.748,239.842h-15.987v-15.987h-15.987v31.974h31.974V239.842z"/>
<path fill="#34094e" d="M-347.906,223.855h-15.987v15.987h-15.987v15.987h31.974V223.855z"/>
<path fill="#34094e" d="M-363.893,207.868h15.987v-31.974h-31.974v15.987h15.987V207.868z"/>
<path fill="#34094e" d="M-531.755,207.868h23.98v15.987h-23.98V207.868z"/>
<path fill="#34094e" d="M-411.854,207.868h23.98v15.987h-23.98V207.868z"/>
<path fill="#34094e" d="M-667.643,391.717h15.987v23.98h-15.987V391.717z"/>
<path fill="#34094e" d="M-315.933,374.93c0-15.987-13.586-29.573-29.573-29.573c-2.4,0-5.597,0-7.993,0.796l-96.721,27.977c-0.8,0-2.4,0.8-3.197,0
	l-22.384-3.997c15.187-8.79,20.784-27.977,12.79-43.164c-5.597-10.39-15.987-16.787-27.977-16.787h-100.718
	c-3.997,0-7.993,0.8-11.99,3.201l-15.987,10.39v-11.99h-95.921v135.888h95.921v-19.984l79.134,32.774
	c4.797,2.396,11.194,2.396,15.987,0.8l187.049-58.354C-324.726,399.711-315.933,388.521-315.933,374.93z M-635.669,431.684h-63.947
	V327.77h31.974v47.961h15.987V327.77h15.987V431.684z M-528.558,446.071c-1.596,0.8-3.997,0.8-5.593,0l-85.531-35.97v-67.944
	l23.98-13.586c0.8-0.8,2.4-0.8,3.997-0.8h99.918c8.794,0,15.987,7.193,15.987,15.987c0,8.794-7.193,15.987-15.987,15.987h-55.954
	v7.993l-1.596,7.993l91.924,15.187c3.197,0.8,7.193,0,10.39-0.8l96.721-27.977c7.193-2.396,14.387,2.4,16.787,9.594
	c2.396,7.193-1.6,14.387-8.794,16.787L-528.558,446.071z"/>
</svg>
