<?xml version="1.0" encoding="iso-8859-1"?>
<!-- Generator: Adobe Illustrator 23.0.3, SVG Export Plug-In . SVG Version: 6.00 Build 0)  -->
<svg version="1.1" id="Capa_1" xmlns="http://www.w3.org/2000/svg" xmlns:xlink="http://www.w3.org/1999/xlink" x="0px" y="0px"
	 viewBox="-703 43.533 512 494.934" style="enable-background:new -703 43.533 512 494.934;" xml:space="preserve">
<g>
	<g>
		<path fill="#34094e" d="M-225.142,43.533h-443.716c-18.825,0-34.142,15.318-34.142,34.142v281.591c0,4.71,3.823,8.533,8.533,8.533h494.933
			c4.71,0,8.533-3.823,8.533-8.533V77.675C-191,58.851-206.317,43.533-225.142,43.533z M-208.067,350.733h-477.866V77.675
			c0-9.421,7.663-17.075,17.075-17.075h443.716c9.412,0,17.075,7.654,17.075,17.075V350.733z"/>
	</g>
</g>
<g>
	<g>
		<path fill="#34094e" d="M-199.533,350.733h-494.934c-4.71,0-8.533,3.823-8.533,8.533v42.658c0,18.825,15.317,34.142,34.142,34.142h443.716
			c18.825,0,34.142-15.317,34.142-34.142v-42.658C-191,354.556-194.823,350.733-199.533,350.733z M-208.067,401.925
			c0,9.421-7.663,17.075-17.075,17.075h-443.716c-9.412,0-17.075-7.654-17.075-17.075V367.8h477.867L-208.067,401.925
			L-208.067,401.925z"/>
	</g>
</g>
<g>
	<g>
		<path fill="#34094e" d="M-421.4,384.867h-51.2c-4.71,0-8.533,3.823-8.533,8.533s3.823,8.533,8.533,8.533h51.2c4.71,0,8.533-3.823,8.533-8.533
			S-416.69,384.867-421.4,384.867z"/>
	</g>
</g>
<g>
	<g>
		<path fill="#34094e" d="M-233.667,77.667h-426.666c-4.71,0-8.533,3.823-8.533,8.533v273.067c0,4.71,3.823,8.533,8.533,8.533h426.667
			c4.71,0,8.533-3.823,8.533-8.533V86.2C-225.133,81.49-228.956,77.667-233.667,77.667z M-242.2,350.733h-409.6v-256h409.6
			L-242.2,350.733L-242.2,350.733z"/>
	</g>
</g>
<g>
	<g>
		<path fill="#34094e" d="M-336.067,487.267h-221.866c-14.114,0-25.6,11.486-25.6,25.6s11.486,25.6,25.6,25.6h221.867
			c14.114,0,25.6-11.486,25.6-25.6S-321.953,487.267-336.067,487.267z M-336.067,521.4h-221.866c-4.71,0-8.533-3.831-8.533-8.533
			c0-4.702,3.823-8.533,8.533-8.533h221.867c4.71,0,8.533,3.831,8.533,8.533C-327.533,517.569-331.356,521.4-336.067,521.4z"/>
	</g>
</g>
<g>
	<g>
		<path fill="#34094e" d="M-353.133,487.267c-28.314,0-42.667-20.096-42.667-59.733c0-4.71-3.823-8.533-8.533-8.533h-85.333
			c-4.71,0-8.533,3.823-8.533,8.533c0,39.637-14.353,59.733-42.667,59.733c-4.71,0-8.533,3.823-8.533,8.533s3.823,8.533,8.533,8.533
			h187.733c4.71,0,8.533-3.823,8.533-8.533S-348.423,487.267-353.133,487.267z M-499.301,487.267
			c10.505-11.639,16.691-28.971,17.937-51.2h68.736c1.237,22.229,7.424,39.561,17.937,51.2H-499.301z"/>
	</g>
</g>
<g>
	<g>
		<path fill="#34094e" d="M-295.243,294.959l-20.599-20.599l11.46-11.46c2.125-2.125,2.978-5.214,2.244-8.124c-0.734-2.91-2.944-5.214-5.82-6.084
			l-85.333-25.6c-3.012-0.905-6.263-0.077-8.482,2.142c-2.227,2.219-3.046,5.478-2.142,8.482l25.6,85.333
			c0.862,2.884,3.174,5.094,6.084,5.828c2.901,0.717,5.999-0.12,8.124-2.244l12.066-12.075l20.599,20.608
			c1.596,1.604,3.772,2.5,6.033,2.5s4.437-0.896,6.033-2.5l24.132-24.141C-291.907,303.689-291.907,298.296-295.243,294.959z
			 M-325.409,313.067l-18.756-18.765c-2.176-2.176-5.026-3.26-7.876-3.26c-2.859,0-5.709,1.092-7.876,3.251l-6.161,6.161
			l-16.939-56.465l56.465,16.939l-6.605,6.605c-1.818,1.826-2.816,4.25-2.816,6.827c0,2.586,1.007,5.026,2.833,6.835l19.797,19.797
			L-325.409,313.067z"/>
	</g>
</g>
<g>
	<g>
		<path fill="#34094e" d="M-344.6,111.8h-238.933c-4.71,0-8.533,3.823-8.533,8.533V163c0,4.71,3.823,8.533,8.533,8.533H-344.6
			c4.71,0,8.533-3.823,8.533-8.533v-42.667C-336.067,115.623-339.89,111.8-344.6,111.8z M-353.133,154.467H-575v-25.6h221.867
			V154.467z"/>
	</g>
</g>
<g>
	<g>
		<path fill="#34094e" d="M-481.133,205.667H-549.4c-4.71,0-8.533,3.823-8.533,8.533v34.133c0,4.71,3.823,8.533,8.533,8.533h68.267
			c4.71,0,8.533-3.823,8.533-8.533V214.2C-472.6,209.49-476.423,205.667-481.133,205.667z M-489.667,239.8h-51.2v-17.067h51.2V239.8
			z"/>
	</g>
</g>
<g>
	<g>
		<path fill="#34094e" d="M-344.6,111.8h-238.933c-4.71,0-8.533,3.823-8.533,8.533v162.133c0,4.71,3.823,8.533,8.533,8.533h203.145
			c2.705,0,5.239-1.271,6.844-3.439c1.613-2.167,2.108-4.966,1.331-7.552l-10.803-36.019l35.968,10.795
			c2.586,0.777,5.385,0.282,7.543-1.331c2.167-1.604,3.439-4.147,3.439-6.844V120.333C-336.067,115.623-339.89,111.8-344.6,111.8z
			 M-353.133,235.141l-40.167-12.049c-3.012-0.905-6.263-0.077-8.482,2.142c-2.227,2.227-3.046,5.478-2.142,8.491l12.066,40.209
			H-575V128.867h221.867V235.141z"/>
	</g>
</g>
</svg>
