<?xml version="1.0" encoding="iso-8859-1"?>
<!-- Generator: Adobe Illustrator 23.0.3, SVG Export Plug-In . SVG Version: 6.00 Build 0)  -->
<svg version="1.1" id="&#x421;&#x43B;&#x43E;&#x439;_1"
	 xmlns="http://www.w3.org/2000/svg" xmlns:xlink="http://www.w3.org/1999/xlink" x="0px" y="0px" viewBox="-732 64 454 445.901"
	 style="enable-background:new -732 64 454 445.901;" xml:space="preserve">
<path fill="#34094e" d="M-307.503,107.005h-27.5V73.904c-0.117-5.535-4.664-9.945-10.199-9.898h-69.597c-5.539-0.047-10.082,4.363-10.203,9.898
	v33.101h-159.999V73.904c-0.082-5.551-4.648-9.98-10.199-9.898h-69.597c-5.539-0.047-10.082,4.363-10.203,9.898v33.101h-27.5
	c-7.855-0.051-15.402,3.059-20.945,8.621c-5.547,5.566-8.629,13.121-8.555,20.976v343.4c-0.086,7.887,2.984,15.48,8.523,21.094
	c5.539,5.617,13.09,8.785,20.976,8.805h394.997c7.891-0.02,15.441-3.187,20.98-8.805c5.539-5.613,8.605-13.207,8.519-21.094v-343.4
	c0.074-7.855-3.004-15.41-8.551-20.976C-292.101,110.064-299.644,106.955-307.503,107.005z M-405.003,84.005h50v71.999h-50V84.005z
	 M-655.001,84.005h50v71.999h-50V84.005z M-702.5,127.005h27.5v38.8c0.098,5.594,4.609,10.105,10.203,10.199h69.597
	c5.594-0.094,10.105-4.605,10.199-10.199v-38.8h159.999v38.8c0.063,5.605,4.594,10.141,10.203,10.199h69.597
	c5.594-0.094,10.105-4.605,10.199-10.199v-38.8h27.5c2.559-0.063,5.027,0.93,6.824,2.746c1.801,1.82,2.77,4.297,2.676,6.852v78.402
	H-712v-78.402c-0.09-2.555,0.879-5.031,2.68-6.852C-707.524,127.935-705.055,126.943-702.5,127.005z M-403.003,235.004v68.999
	h-91.999v-68.999H-403.003z M-515.002,304.004h-91.999v-68.999h91.999V304.004z M-627.001,304.004H-712v-68.999h84.999V304.004z
	 M-627.001,324.004v68.999H-712v-68.999H-627.001z M-607.001,324.004h91.999v68.999h-91.999V324.004z M-515.002,413.003v76.999
	h-91.999v-76.999H-515.002z M-495.002,413.003h91.999v76.999h-91.999V413.003z M-495.002,393.003v-68.999h91.999v68.999H-495.002z
	 M-383.003,324.004h84.999v68.999h-84.999V324.004z M-383.003,304.004v-68.999h84.999v68.999H-383.003z M-712,480.1v-67.097h84.999
	v76.999H-702.5C-708,490.002-712,485.6-712,480.1z M-307.503,490.002h-75.499v-76.999h84.999V480.1
	C-298.003,485.6-302.003,490.002-307.503,490.002z"/>
</svg>
