<?xml version="1.0" encoding="iso-8859-1"?>
<!-- Generator: Adobe Illustrator 23.0.3, SVG Export Plug-In . SVG Version: 6.00 Build 0)  -->
<svg version="1.1" id="&#x421;&#x43B;&#x43E;&#x439;_1"
	 xmlns="http://www.w3.org/2000/svg" xmlns:xlink="http://www.w3.org/1999/xlink" x="0px" y="0px" viewBox="-244 245 511 511"
	 style="enable-background:new -244 245 511 511;" xml:space="preserve" width="47px">
<g id="surface1">
	<path fill="#888888" d="M266.842,471.837v-0.004c-0.834-7.961-4.959-15.298-11.314-20.16l-29.084-22.643l10.932-36.07
		c2.331-7.696,1.365-16.105-2.655-23.076c-4.023-6.967-10.823-12.008-18.655-13.84l-36.589-8.542l-4.671-37.279
		c-1.002-7.984-5.306-15.275-11.809-19.992c-6.511-4.737-14.78-6.581-22.674-5.06l-36.901,7.076l-19.435-32.16
		c-7.735-12.799-23.977-17.634-37.77-11.255c-0.971,0.448-1.906,0.986-2.721,1.563L11.47,272.703l-30.834-21.478
		c-6.6-4.593-14.893-6.265-22.76-4.596c-7.867,1.669-14.768,6.581-18.928,13.466l-19.427,32.156l-36.904-7.08
		c-7.903-1.513-16.164,0.331-22.663,5.057c-6.511,4.729-10.815,12.019-11.813,19.996l-4.671,37.283l-38.698,9.033l-1.817,0.593
		l-0.671,0.292c-14.058,6.148-21.092,21.096-16.717,35.536l10.928,36.07l-30.331,23.595l-1.758,1.528l-0.495,0.542
		c-10.179,11.119-10.577,27.938-0.947,39.181l23.747,28.398l-19.248,34.928l-0.768,1.747l-0.222,0.651
		c-4.799,14.343,1.739,29.93,15.205,36.25l34.012,15.961l-3.185,37.435c-0.682,8.019,2.016,16.047,7.396,22.019
		c5.38,5.977,13.08,9.497,21.127,9.661l37.563,0.749l12.32,35.489c2.635,7.602,8.363,13.84,15.708,17.107
		c7.345,3.271,15.809,3.357,23.232,0.234l34.624-14.593l27.177,29.002l1.423,1.267l0.55,0.409
		c5.368,3.965,11.641,5.906,17.856,5.906c7.864,0,15.63-3.111,21.31-9.173l25.692-27.411l34.628,14.596
		c7.407,3.119,15.867,3.033,23.212-0.234c7.353-3.271,13.08-9.509,15.715-17.107l12.324-35.493l39.735-0.791l1.887-0.207
		l0.678-0.136c14.815-3.021,25.041-16.476,23.782-31.29l-3.181-37.439l34.016-15.961c7.279-3.415,12.881-9.762,15.368-17.415
		c2.483-7.649,1.684-16.078-2.199-23.123l-18.207-33.037l23.75-28.398C265.177,487.814,267.676,479.79,266.842,471.837z
		 M13.06,628.523c-70.164,0-127.248-57.084-127.248-127.247c0-70.168,57.084-127.247,127.248-127.247
		c70.168,0,127.251,57.08,127.251,127.247C140.312,571.44,83.224,628.523,13.06,628.523z"/>
	<path fill="#888888" d="M13.06,403.989c-53.641,0-97.287,43.641-97.287,97.286c0,53.641,43.645,97.283,97.287,97.283
		c53.645,0,97.286-43.641,97.286-97.283C110.347,447.631,66.706,403.989,13.06,403.989z M70.822,482.952l-69.7,69.696
		c-2.924,2.928-6.756,4.39-10.593,4.39c-3.832,0-7.669-1.462-10.593-4.39l-26.632-26.632c-5.852-5.852-5.852-15.337,0-21.189
		c5.848-5.848,15.333-5.848,21.185,0l16.043,16.043l59.103-59.103c5.848-5.852,15.337-5.852,21.185,0
		C76.674,467.615,76.674,477.1,70.822,482.952z"/>
</g>
</svg>
