<?xml version="1.0" encoding="iso-8859-1"?>
<!-- Generator: Adobe Illustrator 23.0.3, SVG Export Plug-In . SVG Version: 6.00 Build 0)  -->
<svg version="1.1" id="Capa_1" xmlns="http://www.w3.org/2000/svg" xmlns:xlink="http://www.w3.org/1999/xlink" x="0px" y="0px"
	 viewBox="-243 245 512 512" style="enable-background:new -243 245 512 512;" xml:space="preserve" width="49px">
<g>
	<g>
		<path fill="#888888" d="M146.513,332.422c0-12.012-4.688-23.32-13.184-31.816l-42.422-42.422C82.529,249.805,70.636,245,58.8,245h-2.578v90
			h90.292L146.513,332.422L146.513,332.422z"/>
	</g>
</g>
<g>
	<g>
		<path fill="#888888" d="M30.937,554.537c2.871-8.716,7.881-16.831,14.414-23.408l101.562-101.153V365h-105.4C33.222,365,27,358.291,27,350V245
			h-225c-24.814,0-45,20.186-45,45v422c0,24.814,20.186,45,45,45h299.513c24.814,0,45.4-20.186,45.4-45V600.049l-16.484,16.084
			c-6.679,6.621-14.501,11.44-23.32,14.385l-47.695,15.923l-7.266,0.396c-12.012,0-23.379-5.845-30.439-15.63
			c-7.002-9.741-8.906-22.368-5.098-33.779L30.937,554.537z M-168,515h149.513c8.291,0,15,6.709,15,15s-6.709,15-15,15H-168
			c-8.291,0-15-6.709-15-15S-176.291,515-168,515z M-183,470c0-8.291,6.709-15,15-15h149.513c8.291,0,15,6.709,15,15
			s-6.709,15-15,15H-168C-176.291,485-183,478.291-183,470z M-183,590c0-8.291,6.709-15,15-15h149.513c8.291,0,15,6.709,15,15
			s-6.709,15-15,15H-168C-176.291,605-183,598.291-183,590z M41.513,665c8.291,0,15,6.709,15,15s-6.708,15-15,15h-90
			c-8.291,0-15-6.709-15-15s6.709-15,15-15H41.513z M-168,425c-8.291,0-15-6.709-15-15s6.709-15,15-15H41.513
			c8.291,0,15,6.709,15,15s-6.709,15-15,15H-168z"/>
	</g>
</g>
<g>
	<g>
		<path fill="#888888" d="M58.111,567.808l-13.05,39.151c-1.956,5.865,3.625,11.444,9.49,9.485l39.128-13.068L58.111,567.808z"/>
	</g>
</g>
<g>
	<g>
		<path fill="#888888" d="M174.609,444.307L75.82,543.096l42.605,42.605c22.328-22.332,65.773-65.783,98.784-98.794L174.609,444.307z"/>
	</g>
</g>
<g>
	<g>
		<path fill="#888888" d="M260.185,401.284c-5.273-5.303-13.037-8.335-21.27-8.335s-15.996,3.032-21.299,8.35l-21.797,21.797l42.598,42.598
			c11.933-11.934,20.181-20.182,21.799-21.799C271.933,432.16,271.932,413.046,260.185,401.284z"/>
	</g>
</g>
<g>
	<g>
		<g>
			<path fill="#888888" d="M260.215,443.896c0.001,0,0.001-0.001,0.002-0.002c0.038-0.038,0.055-0.055,0.086-0.086
				C260.272,443.84,260.255,443.857,260.215,443.896z"/>
			<path fill="#888888" d="M260.303,443.808c0.048-0.048,0.104-0.104,0.133-0.133C260.406,443.705,260.351,443.76,260.303,443.808z"/>
			<path fill="#888888" d="M260.436,443.675C260.533,443.578,260.535,443.576,260.436,443.675L260.436,443.675z"/>
		</g>
	</g>
</g>
</svg>
