<?xml version="1.0" encoding="iso-8859-1"?>
<!-- Generator: Adobe Illustrator 23.0.3, SVG Export Plug-In . SVG Version: 6.00 Build 0)  -->
<svg version="1.1" id="Capa_1" xmlns="http://www.w3.org/2000/svg" xmlns:xlink="http://www.w3.org/1999/xlink" x="0px" y="0px"
	 viewBox="0 0 512 454.779" style="enable-background:new 0 0 512 454.779;" xml:space="preserve" width="80px" heigth="70px">
<g>
	<path fill="#cab0da" d="M506.184,390.431L293.151,21.449C285.397,8.018,271.509,0,256,0s-29.397,8.019-37.152,21.449L5.816,390.431
		c-7.755,13.431-7.755,29.468,0,42.898c7.755,13.432,21.644,21.45,37.152,21.45h426.065c15.509,0,29.397-8.019,37.152-21.45
		C513.939,419.9,513.939,403.863,506.184,390.431z M493.195,425.831c-5.044,8.735-14.076,13.95-24.163,13.95H42.967
		c-10.086,0-19.119-5.215-24.163-13.95c-5.043-8.734-5.043-19.165,0-27.899L231.838,28.948c5.043-8.734,14.076-13.949,24.163-13.949
		c10.086,0,19.119,5.215,24.163,13.949l213.032,368.984l0,0C498.238,406.666,498.238,417.096,493.195,425.831z"/>
	<path fill="#cab0da" d="M294.547,120.054c-2.071-3.588-6.658-4.816-10.244-2.745c-3.587,2.071-4.816,6.658-2.745,10.244l152.498,264.134H312.113
		c-4.142,0-7.5,3.358-7.5,7.5s3.358,7.5,7.5,7.5h134.932c2.68,0,5.155-1.43,6.495-3.75c1.34-2.32,1.34-5.18,0-7.5L294.547,120.054z"
		/>
	<path fill="#cab0da" d="M199.893,391.687H77.944L255.999,83.285l8.695,15.062c2.071,3.587,6.658,4.816,10.244,2.745
		c3.587-2.071,4.816-6.658,2.745-10.244l-15.19-26.311c-1.34-2.32-3.815-3.75-6.495-3.75c-2.68,0-5.156,1.43-6.495,3.75
		L58.46,395.437c-1.34,2.32-1.34,5.18,0,7.5c1.34,2.32,3.815,3.75,6.495,3.75h134.938c4.142,0,7.5-3.358,7.5-7.5
		S204.035,391.687,199.893,391.687z"/>
	<path fill="#cab0da" d="M256,351.61c-17.395,0-31.546,14.152-31.546,31.546c0,17.395,14.151,31.547,31.546,31.547s31.546-14.152,31.546-31.547
		C287.547,365.762,273.395,351.61,256,351.61z M256,399.704c-9.124,0-16.547-7.424-16.547-16.548s7.423-16.547,16.547-16.547
		s16.547,7.423,16.547,16.547S265.125,399.704,256,399.704z"/>
	<path fill="#cab0da" d="M240.402,167.25c-4.237,0-8.339,1.763-11.255,4.836c-2.916,3.074-4.461,7.263-4.239,11.494l7.172,136.266
		c0.434,8.243,7.24,14.7,15.494,14.7h16.853c8.255,0,15.06-6.458,15.494-14.7l7.172-136.266c0.223-4.231-1.323-8.42-4.239-11.494
		c-2.917-3.074-7.019-4.836-11.255-4.836H240.402z M272.114,182.792l-7.172,136.266c-0.014,0.274-0.241,0.489-0.516,0.489h-16.853
		c-0.275,0-0.501-0.215-0.516-0.489l-7.172-136.266c-0.003-0.055-0.012-0.221,0.141-0.382c0.153-0.161,0.32-0.161,0.375-0.161
		h31.196c0.055,0,0.222,0,0.375,0.161C272.126,182.571,272.117,182.737,272.114,182.792z"/>
</g>
</svg>
