<?xml version="1.0" encoding="iso-8859-1"?>
<!-- Generator: Adobe Illustrator 23.0.3, SVG Export Plug-In . SVG Version: 6.00 Build 0)  -->
<svg version="1.1" id="Capa_1" xmlns="http://www.w3.org/2000/svg" xmlns:xlink="http://www.w3.org/1999/xlink" x="0px" y="0px"
	 viewBox="-677 35 460 512" style="enable-background:new -677 35 460 512;" xml:space="preserve">
<g>
	<g>
		<path fill="#34094e" d="M-337,431c-5.52,0-10,4.48-10,10s4.48,10,10,10s10-4.48,10-10S-331.48,431-337,431z"/>
	</g>
</g>
<g>
	<g>
		<path fill="#34094e" d="M-312.378,398.663l-47.53-15.84l-17.063-34.127c15.372-15.646,26.045-36.348,29.644-57.941l2.128-12.755H-327
			c16.542,0,30-13.458,30-30v-63c0-82.71-67.29-150-150-150c-82.922,0-150,67.097-150,150v63c0,13.036,8.361,24.152,20,28.28V288
			c0,16.542,13.458,30,30,30h8.782c4.335,9.417,9.946,18.139,16.774,25.974c1.416,1.628,2.893,3.206,4.406,4.741l-17.054,34.108
			l-47.531,15.841C-636.888,417.092-677,475.271-677,537c0,5.523,4.477,10,10,10h440c5.522,0,10-4.477,10-10
			C-217,475.271-257.111,417.092-312.378,398.663z M-317,248c0,5.514-4.486,10-10,10h-15.262c2.542-19.69,4.236-40.643,4.917-61.28
			c0.02-0.582,0.036-1.148,0.054-1.72H-317V248z M-567,258c-5.514,0-10-4.486-10-10v-53h20.298c0.033,1.043,0.068,2.091,0.107,3.146
			c0.001,0.036,0.003,0.071,0.004,0.107c0,0.003,0,0.006,0,0.009c0.7,20.072,2.372,40.481,4.856,59.737H-567V258z M-547,298
			c-5.514,0-10-4.486-10-10v-10h8.198l2.128,12.759c0.406,2.425,0.905,4.841,1.482,7.241H-547z M-556.983,175h-19.637
			c5.065-67.021,60.997-120,129.62-120c68.318,0,124.496,52.972,129.619,120h-19.635c-0.72-55.227-45.693-100-101.033-100h-17.9
			C-511.288,75-556.264,119.773-556.983,175z M-455.95,95h17.9c44.809,0,81.076,36.651,81.05,81.41c0,3.147-0.025,5.887-0.078,8.38
			c0,0.032-0.001,0.065-0.001,0.098l-12.508-1.787c-33.98-4.852-66.064-20.894-90.342-45.172c-1.876-1.875-4.419-2.929-7.071-2.929
			c-26.856,0-52.564,12.236-69.558,32.908C-532.37,127.189-497.947,95-455.95,95z M-524.46,298
			c-5.006-16.653-10.734-65.653-12-97.053l13.459-17.946c12.361-16.476,31.592-26.713,52.049-27.888
			c26.917,25.616,61.739,42.532,98.537,47.786l14.722,2.104c-0.984,20.885-2.995,41.843-5.876,61.118
			c-0.001,0.006-0.002,0.013-0.003,0.02c-0.916,6.197-1.638,10.185-3.482,21.324c-5.296,31.765-28.998,60.49-60.287,68.313
			c-12.877,3.215-26.443,3.214-39.313,0c-19.537-4.884-37.451-18.402-49.012-37.778h20.386c4.128,11.639,15.243,20,28.28,20h20
			c16.575,0,30-13.424,30-30c0-16.542-13.458-30-30-30h-20c-13.327,0-24.278,8.608-28.297,20H-524.46z M-467.841,376.016
			c6.859,1.445,13.852,2.184,20.841,2.184c5.471,0,10.943-0.458,16.353-1.346l-17.67,18.687L-467.841,376.016z M-462.065,410.079
			l-31.718,33.542c-8.732-16.714-16.235-34.109-22.389-51.917l11.911-23.822L-462.065,410.079z M-391.434,364.494l13.604,27.209
			c-6.164,17.838-13.669,35.239-22.392,51.933l-33.948-33.948L-391.434,364.494z M-477,308c0-5.521,4.478-10,10-10h20
			c5.514,0,10,4.486,10,10c0,5.522-4.479,10-10,10h-20C-472.514,318-477,313.514-477,308z M-656.6,527
			c3.963-49.539,36.932-94.567,81.302-109.363l42.094-14.028c7.712,21.325,17.266,42.052,28.463,61.74
			c0.019,0.034,0.037,0.068,0.056,0.101c0,0.001,0.001,0.001,0.001,0.002c8.181,14.389,17.389,28.45,27.372,41.799L-465.01,527
			H-656.6z M-447,518.086l-13.562-21.773c-0.152-0.244-0.314-0.481-0.486-0.711c-8.098-10.802-15.652-22.099-22.532-33.662
			l35.663-37.714l37.578,37.578c-6.926,11.647-14.506,22.991-22.611,33.796C-433.44,496.253-432.745,495.224-447,518.086z
			 M-428.99,527l12.301-19.748c10.027-13.4,19.301-27.574,27.564-42.132c0.05-0.088,0.097-0.178,0.147-0.266
			c0.006-0.011,0.012-0.021,0.018-0.032c11.055-19.5,20.509-40.047,28.164-61.213l42.093,14.028
			c44.371,14.796,77.34,59.824,81.303,109.363H-428.99L-428.99,527z"/>
	</g>
</g>
<g>
	<g>
		<path fill="#34094e" d="M-267.454,486.531c-6.683-13.377-16.472-25.261-28.309-34.367c-4.378-3.369-10.656-2.55-14.023,1.828
			c-3.368,4.378-2.549,10.656,1.828,14.024c9.454,7.273,17.272,16.766,22.611,27.453c2.473,4.949,8.483,6.941,13.415,4.477
			C-266.992,497.478-264.987,491.472-267.454,486.531z"/>
	</g>
</g>
</svg>
