<?xml version="1.0" encoding="iso-8859-1"?>
<!-- Generator: Adobe Illustrator 23.0.3, SVG Export Plug-In . SVG Version: 6.00 Build 0)  -->
<svg version="1.1" id="&#x421;&#x43B;&#x43E;&#x439;_1"
	 xmlns="http://www.w3.org/2000/svg" xmlns:xlink="http://www.w3.org/1999/xlink" x="0px" y="0px" viewBox="-704 35 462.992 511"
	 style="enable-background:new -704 35 462.992 511;" xml:space="preserve">
<path fill="#34094e" d="M-251.724,301.96c-23.482-23.376-50.628-1.497-50.628-1.497V177.402c0-4.133-3.349-7.485-7.482-7.485
	c-4.136,0-7.485,3.353-7.485,7.485v133.591c0,0-35.692,28.137-51.033,35.014V124.431c0-10.3,8.378-18.678,18.678-18.678h13.676
	c10.3,0,18.678,8.378,18.678,18.678v22.328c0,4.136,3.349,7.485,7.485,7.485c4.133,0,7.482-3.349,7.482-7.485v-22.328
	c0-18.554-15.092-33.645-33.645-33.645h-13.676c-18.554,0-33.649,15.092-33.649,33.645V351.94c-4.464,1.251-9.045,2.101-13.7,2.55
	V196.685c0-18.647-15.17-33.817-33.813-33.817h-13.345c-18.643,0-33.813,15.17-33.813,33.817v76.265l-13.704,7.275v-25.38
	c0-16.788-13.657-30.445-30.441-30.445h-20.086c-16.788,0-30.441,13.657-30.441,30.445v68.359l-24.441,12.971l-68.632,19.614
	c-11.942,3.411-21.914,11.232-28.074,22.016c-6.164,10.788-7.836,23.349-4.71,35.368l7.676,29.536c1.037,4,5.123,6.398,9.127,5.361
	c4-1.041,6.402-5.127,5.361-9.131l-7.676-29.532c-4.452-17.131,5.392-34.363,22.413-39.224l62.749-17.934l47.162,125.872
	c3.158,8.429,2.659,32.476-22.289,41.337l-47.419,10.772c-16.526,3.75-32.811-6.156-37.076-22.561l-9.626-37.041
	c-1.041-4-5.127-6.402-9.127-5.365c-4.004,1.041-6.402,5.127-5.365,9.131l9.63,37.045c5.411,20.811,23.899,34.561,44.48,34.561
	c15.123,0,57.821-11.945,57.821-11.945c12.994-2.947,24.074-11.368,30.394-23.096c5.216-9.676,6.764-20.811,4.526-31.419
	l164.055-40.164c13.567-3.326,26.448-9.77,37.24-18.639l79.836-65.599C-230.289,333.55-244.566,309.082-251.724,301.96z
	 M-444.18,177.839h13.345c10.39,0,18.842,8.456,18.842,18.846v158.18l-47.232-0.02c-4.339-0.039-1.337-2.904-1.099-3.099
	l13.602-11.018c12.69-10.281,20.979-24.573,24.632-42.487c2.32-11.365-2.016-22.741-11.306-29.688
	c-8.678-6.487-19.84-7.735-29.626-3.446v-68.421C-463.022,186.295-454.57,177.839-444.18,177.839z M-557.693,254.844
	c0-8.53,6.94-15.474,15.47-15.474h20.086c8.53,0,15.474,6.943,15.474,15.474v33.326l-51.033,27.088v-60.413H-557.693z
	 M-264.129,343.574l-79.84,65.599c-9.068,7.454-19.891,12.869-31.294,15.661l-165.263,40.464l-44.445-118.608l126.901-67.361
	c5.158-2.741,11.033-2.285,15.708,1.212c4.674,3.497,6.772,8.994,5.606,14.71c-2.943,14.421-9.466,25.809-19.388,33.844
	l-13.602,11.021c-5.575,4.515-7.63,11.801-5.236,18.565c2.394,6.76,8.577,11.135,15.751,11.135l54.538,0.023h0.039
	c19.415,0,38.074-5.903,53.957-17.072l60.951-42.862c8.534-6.004,20.023-4.943,27.314,2.519
	C-258.234,316.712-250.016,329.457-264.129,343.574z"/>
<path fill="#34094e" d="M-580.375,482.915c0-16.261-13.228-29.493-29.489-29.493s-29.489,13.232-29.489,29.493
	c0,16.257,13.228,29.489,29.489,29.489S-580.375,499.172-580.375,482.915z M-624.383,482.915c0-8.008,6.511-14.522,14.519-14.522
	c8.004,0,14.519,6.515,14.519,14.522c0,8.004-6.511,14.519-14.519,14.519S-624.383,490.919-624.383,482.915z"/>
<path fill="#34094e" d="M-663.693,270.022l108.811-109.649l24.476,12.659c8.768,4.534,19.439,2.982,26.55-3.864l59.228-57.014
	c0,0-1.63,29.283,23.029,29.283c12.694,0,23.025-10.331,23.025-23.029V58.025c0-0.07-0.004-0.144-0.004-0.218
	C-398.66,42.053-410.18,35-421.599,35h-59.856c-12.698,0-23.025,10.331-23.025,23.025c0,25.31,25.758,23.025,25.758,23.025
	l-45.185,43.493l-24.83-12.842c-8.979-4.647-19.797-2.943-26.924,4.23L-696.38,237.581c-8.943,9.014-8.889,23.622,0.125,32.565
	C-691.912,274.455-677.081,283.41-663.693,270.022z M-685.756,248.127l120.718-121.649c1.559-1.567,4.062-4.312,9.423-1.478
	l29.595,15.306c2.85,1.474,6.32,0.971,8.632-1.255l62.425-60.09c2.199-2.117,2.893-5.361,1.75-8.191
	c-1.142-2.834-3.887-4.686-6.943-4.686h-21.298c-4.441,0-8.055-3.614-8.055-8.058c0-4.441,3.614-8.055,8.055-8.055h59.856
	c2.203,0,8.051,0,8.051,8.008c0,0.066,0.004,0.133,0.004,0.203v60.226c0,4.441-3.614,8.055-8.055,8.055
	c-4.444,0-8.059-3.614-8.059-8.055V94.56c0-3.002-1.793-5.715-4.554-6.889c-2.76-1.177-5.957-0.585-8.121,1.497l-71.907,69.217
	c-2.487,2.394-6.222,2.94-9.287,1.353l-29.357-15.185c-2.905-1.501-6.448-0.943-8.753,1.376l-112.682,113.548
	c-4.912,4.912-9.875,1.552-11.396,0.043C-688.863,256.388-688.883,251.277-685.756,248.127z"/>
</svg>
