<?xml version="1.0" encoding="iso-8859-1"?>
<!-- Generator: Adobe Illustrator 23.0.3, SVG Export Plug-In . SVG Version: 6.00 Build 0)  -->
<svg version="1.1" id="outline" xmlns="http://www.w3.org/2000/svg" xmlns:xlink="http://www.w3.org/1999/xlink" x="0px" y="0px"
	 viewBox="0 0 480 448" style="enable-background:new 0 0 480 448;" xml:space="preserve" width="76px" height="71px">
<path fill="#cab0da" d="M8,448h256c4.418,0,8-3.581,8-8c0,0,0,0,0,0v-20.687c0.026-9.371-3.699-18.362-10.343-24.97L256,388.687V264
	c-0.051-42.692-33.58-77.84-76.222-79.904l2.736-6.842c6.28-15.661,9.5-32.381,9.486-49.254c0-4.418-3.581-8-8-8c0,0,0,0,0,0H88
	c-4.418,0-8,3.581-8,8c0,0,0,0,0,0c-0.014,16.873,3.206,33.593,9.486,49.254l2.736,6.842C49.58,186.16,16.052,221.308,16,264
	v116.687c0.014,5.125-2.023,10.042-5.657,13.656C3.699,400.951-0.026,409.943,0,419.313V440C0,444.418,3.582,448,8,448
	C8,448,8,448,8,448z M175.729,136c-0.825,12.121-3.548,24.036-8.07,35.312L162.584,184h-53.167l-5.075-12.688
	c-4.522-11.276-7.245-23.191-8.07-35.312H175.729z M16,419.313c-0.014-5.125,2.023-10.043,5.657-13.657
	c6.644-6.608,10.369-15.599,10.343-24.97V264c0.04-35.33,28.67-63.96,64-64h80c35.33,0.04,63.96,28.67,64,64v120h-32v16h36.686
	l5.657,5.657c3.634,3.614,5.671,8.531,5.657,13.656V432H16V419.313z"/>
<path fill="#cab0da" d="M139.544,312h-16c-6.627,0-12-5.373-12-12s5.373-12,12-12h32v-16h-16v-16h-16v16c-15.464,0-28,12.536-28,28s12.536,28,28,28
	h16c6.627,0,12,5.373,12,12s-5.373,12-12,12h-40v16h24v12.749h16V368c15.464,0,28-12.536,28-28S155.008,312,139.544,312z"/>
<path fill="#cab0da" d="M472,240h-32v-80h16c4.418,0,8-3.581,8-8c0,0,0,0,0,0V56c0-4.418-3.581-8-8-8c0,0,0,0,0,0h-0.022
	c5.214-6.914,8.031-15.34,8.022-24V8c0-4.418-3.581-8-8-8c0,0,0,0,0,0h-64c-4.418,0-8,3.581-8,8c0,0,0,0,0,0v16
	c-0.015,13.249-10.751,23.985-24,24H232c-4.418,0-8,3.581-8,8c0,0,0,0,0,0v88h-16c-4.418,0-8,3.581-8,8c0,0,0,0,0,0v24h16v-16h64v16
	h-48v16h48v16h-24v16h24v16h-8v16h48v16h-32v16h32v16h-32v16h32v16h-56v16h40v16h-16v16h16v16h-16v16h16v16h-24v16h176
	c4.418,0,8-3.581,8-8c0,0,0,0,0,0v-88h8c4.418,0,8-3.581,8-8c0,0,0,0,0,0v-96C480,243.582,476.419,240,472,240
	C472,240,472,240,472,240z M464,272h-64v-16h64V272z M384,384h64v16h-64V384z M400,288h64v16h-64V288z M360,240v-16h64v16H360z
	 M424,208h-64v-16h64V208z M424,176h-64v-16h64V176z M448,64v16h-64V64H448z M384,96h64v16h-64V96z M384,144v-16h64v16H384z M400,24
	v-8h48v8c-0.015,13.249-10.751,23.985-24,24h-32.022C397.193,41.086,400.009,32.66,400,24z M368,64v80h-48V64H368z M240,64h64v16
	h-48v16h48v16h-48v16h48v16h-64V64z M296,160h48v80h-48V160z M336,256h48v80h-48V256z M320,352h48v80h-48V352z M384,432v-16h64v16
	H384z M448,368h-64v-16h64V368z M400,336v-16h64v16H400z"/>
</svg>
