<?xml version="1.0" encoding="iso-8859-1"?>
<!-- Generator: Adobe Illustrator 23.0.3, SVG Export Plug-In . SVG Version: 6.00 Build 0)  -->
<svg version="1.1" id="Layer_1" xmlns="http://www.w3.org/2000/svg" xmlns:xlink="http://www.w3.org/1999/xlink" x="0px" y="0px"
	 viewBox="0 0 256.738 250.98" style="enable-background:new 0 0 256.738 250.98;" xml:space="preserve">
<g>
	<path style="fill:#3F1865;" d="M106.543,88.584c-0.254,0-0.499-0.12-0.651-0.349l-3.884-6.029c-0.229-0.359-0.127-0.84,0.234-1.071
		c0.356-0.231,0.835-0.127,1.069,0.231l3.883,6.029c0.229,0.359,0.128,0.84-0.234,1.069
		C106.833,88.548,106.685,88.584,106.543,88.584z"/>
	<path style="fill:#3F1865;" d="M109.998,100.054c-0.229,0-0.453-0.1-0.605-0.288L93.345,79.665
		c-0.265-0.336-0.213-0.819,0.123-1.089c0.331-0.267,0.819-0.211,1.084,0.125l16.047,20.097c0.27,0.333,0.214,0.819-0.122,1.087
		C110.334,99.998,110.166,100.054,109.998,100.054z"/>
	<path style="fill:#3F1865;" d="M88.322,72.87c-0.229,0-0.453-0.099-0.605-0.292l-6.606-8.268c-0.27-0.334-0.214-0.822,0.117-1.089
		c0.336-0.265,0.825-0.208,1.089,0.125l6.611,8.271c0.265,0.333,0.209,0.819-0.122,1.086C88.663,72.811,88.49,72.87,88.322,72.87z"
		/>
	<path style="fill:#3F1865;" d="M117.399,83.428c-0.326,0-0.631-0.208-0.738-0.537l-2.188-6.828
		c-0.127-0.405,0.097-0.84,0.504-0.972c0.402-0.13,0.84,0.092,0.972,0.501l2.188,6.828c0.127,0.405-0.097,0.84-0.504,0.972
		C117.557,83.418,117.476,83.428,117.399,83.428z"/>
	<path style="fill:#3F1865;" d="M103.494,62.64c-0.3,0-0.58-0.17-0.712-0.463l-3.858-8.815c-0.173-0.39,0.005-0.848,0.397-1.016
		c0.392-0.173,0.845,0.005,1.018,0.397l3.863,8.813c0.168,0.389-0.01,0.847-0.402,1.018C103.703,62.619,103.596,62.64,103.494,62.64
		z"/>
	<path style="fill:#3F1865;" d="M121.791,61.853c-0.376,0-0.703-0.277-0.764-0.659l-2.061-13.791
		c-0.066-0.422,0.229-0.814,0.651-0.878c0.422-0.066,0.814,0.229,0.876,0.649l2.066,13.788c0.061,0.422-0.229,0.817-0.651,0.881
		C121.868,61.851,121.832,61.853,121.791,61.853z"/>
	<path style="fill:#3F1865;" d="M133.371,110.922c-0.03,0-0.062,0-0.092-0.005c-0.423-0.048-0.728-0.43-0.682-0.855l5.049-43.71
		c0.051-0.425,0.433-0.73,0.859-0.682c0.423,0.051,0.729,0.433,0.678,0.857l-5.049,43.71
		C134.088,110.635,133.757,110.922,133.371,110.922z"/>
	<path style="fill:#3F1865;" d="M139.483,57.957c-0.025,0-0.056-0.005-0.081-0.005c-0.428-0.048-0.733-0.43-0.688-0.853l1.15-10.25
		c0.051-0.425,0.433-0.735,0.855-0.687c0.427,0.051,0.732,0.433,0.687,0.857l-1.155,10.25
		C140.21,57.665,139.874,57.957,139.483,57.957z"/>
	<path style="fill:#3F1865;" d="M140.145,105.385c-0.092,0-0.189-0.015-0.285-0.053c-0.393-0.155-0.591-0.608-0.433-1.003
		l13.575-34.345c0.156-0.397,0.605-0.59,1.002-0.43c0.396,0.155,0.59,0.601,0.432,1l-13.568,34.339
		C140.746,105.199,140.456,105.385,140.145,105.385z"/>
	<path style="fill:#3F1865;" d="M156.441,64.146c-0.092,0-0.188-0.018-0.279-0.053c-0.396-0.161-0.596-0.606-0.438-1.003
		l4.473-11.37c0.158-0.399,0.611-0.588,1.004-0.435c0.402,0.155,0.596,0.605,0.438,1.002l-4.475,11.371
		C157.043,63.961,156.752,64.146,156.441,64.146z"/>
	<path style="fill:#3F1865;" d="M170.189,102.26c-0.256,0-0.504-0.125-0.652-0.354c-0.229-0.359-0.121-0.84,0.234-1.069l6.037-3.874
		c0.355-0.231,0.834-0.129,1.063,0.234c0.234,0.359,0.127,0.837-0.229,1.066l-6.037,3.873
		C170.478,102.219,170.332,102.26,170.189,102.26z"/>
	<path style="fill:#3F1865;" d="M183.299,86.141c-0.223,0-0.451-0.1-0.6-0.293c-0.27-0.336-0.215-0.822,0.121-1.086l10.918-8.668
		c0.336-0.265,0.824-0.211,1.09,0.122c0.264,0.336,0.209,0.822-0.127,1.086l-10.918,8.67
		C183.641,86.085,183.467,86.141,183.299,86.141z"/>
	<path style="fill:#3F1865;" d="M181.172,126.161c-0.412,0-0.752-0.328-0.773-0.743c-0.016-0.427,0.316-0.786,0.738-0.804
		l29.311-1.214c0.434-0.025,0.785,0.313,0.805,0.741c0.016,0.425-0.317,0.789-0.742,0.804l-29.307,1.216
		C181.193,126.161,181.182,126.161,181.172,126.161z"/>
	<path style="fill:#3F1865;" d="M174.428,120.771c-0.375,0-0.707-0.277-0.764-0.662c-0.061-0.42,0.234-0.814,0.658-0.875
		l51.943-7.497c0.424-0.059,0.811,0.234,0.877,0.654c0.061,0.422-0.234,0.814-0.658,0.876l-51.943,7.497
		C174.504,120.771,174.465,120.771,174.428,120.771z"/>
	<path style="fill:#3F1865;" d="M208.697,145.292c-0.057,0-0.111-0.008-0.168-0.02l-31.586-7.081
		c-0.418-0.097-0.678-0.511-0.586-0.926c0.092-0.415,0.504-0.677,0.922-0.583l31.59,7.08c0.418,0.092,0.678,0.512,0.586,0.924
		C209.373,145.048,209.053,145.292,208.697,145.292z"/>
	<path style="fill:#3F1865;" d="M209.715,136.368c-0.031,0-0.061-0.003-0.092-0.008l-49.588-5.83
		c-0.422-0.054-0.729-0.436-0.678-0.86c0.051-0.422,0.438-0.732,0.861-0.677l49.582,5.833c0.424,0.048,0.729,0.435,0.678,0.857
		C210.432,136.078,210.102,136.368,209.715,136.368z"/>
	<path style="fill:#3F1865;" d="M228.592,138.544c-0.029,0-0.061-0.003-0.092-0.005l-11.436-1.314
		c-0.428-0.048-0.729-0.43-0.682-0.855c0.051-0.422,0.441-0.73,0.859-0.679l11.438,1.313c0.422,0.049,0.727,0.431,0.676,0.855
		C229.314,138.251,228.978,138.544,228.592,138.544z"/>
	<path style="fill:#3F1865;" d="M202.355,165.605c-0.123,0-0.244-0.025-0.361-0.086l-30.898-16.193
		c-0.383-0.195-0.531-0.664-0.332-1.041c0.199-0.381,0.666-0.521,1.043-0.328l30.904,16.193c0.377,0.199,0.525,0.664,0.326,1.045
		C202.9,165.458,202.635,165.605,202.355,165.605z"/>
	<path style="fill:#3F1865;" d="M187.65,149.466c-0.096,0-0.193-0.016-0.283-0.053l-28.334-11.226
		c-0.398-0.157-0.592-0.608-0.434-1.005c0.158-0.398,0.605-0.593,1.002-0.433l28.334,11.224c0.399,0.158,0.592,0.609,0.434,1.006
		C188.246,149.283,187.957,149.466,187.65,149.466z"/>
	<path style="fill:#3F1865;" d="M218.912,161.931c-0.098,0-0.193-0.021-0.285-0.057l-25.967-10.365
		c-0.398-0.16-0.592-0.609-0.434-1.004c0.158-0.4,0.611-0.592,1.004-0.434l25.971,10.363c0.393,0.16,0.586,0.613,0.428,1.01
		C219.512,161.746,219.217,161.931,218.912,161.931z"/>
	<path style="fill:#3F1865;" d="M167.547,161.646c-0.188,0-0.377-0.068-0.529-0.207l-5.74-5.32
		c-0.311-0.293-0.332-0.783-0.041-1.094c0.289-0.314,0.779-0.332,1.094-0.041l5.742,5.32c0.314,0.291,0.33,0.781,0.039,1.092
		C167.959,161.56,167.75,161.646,167.547,161.646z"/>
	<path style="fill:#3F1865;" d="M179.961,163.244c-0.158,0-0.32-0.049-0.463-0.15l-36.106-26.936
		c-0.341-0.258-0.412-0.741-0.158-1.082c0.26-0.344,0.743-0.415,1.085-0.157l36.105,26.933c0.346,0.256,0.412,0.742,0.158,1.082
		C180.434,163.136,180.199,163.244,179.961,163.244z"/>
	<path style="fill:#3F1865;" d="M205.709,182.464c-0.162,0-0.326-0.051-0.463-0.154l-21.178-15.826
		c-0.342-0.256-0.412-0.738-0.158-1.08c0.26-0.34,0.744-0.408,1.084-0.156l21.178,15.822c0.342,0.258,0.412,0.74,0.152,1.082
		C206.178,182.359,205.943,182.464,205.709,182.464z"/>
	<path style="fill:#3F1865;" d="M157.531,169.232c-0.254,0-0.504-0.125-0.652-0.354l-3.848-6.016
		c-0.229-0.365-0.121-0.84,0.234-1.072c0.361-0.23,0.84-0.125,1.068,0.234l3.848,6.018c0.23,0.359,0.123,0.84-0.234,1.066
		C157.816,169.193,157.674,169.232,157.531,169.232z"/>
	<path style="fill:#3F1865;" d="M168.967,174.558c-0.229,0-0.453-0.1-0.605-0.293l-21.197-26.82
		c-0.266-0.332-0.205-0.82,0.127-1.084c0.336-0.266,0.824-0.207,1.084,0.129l21.197,26.816c0.266,0.336,0.209,0.82-0.127,1.086
		C169.303,174.507,169.135,174.558,168.967,174.558z"/>
	<path style="fill:#3F1865;" d="M181.152,189.957c-0.23,0-0.453-0.1-0.605-0.293l-8.652-10.934
		c-0.266-0.334-0.209-0.822,0.127-1.086c0.336-0.266,0.818-0.207,1.084,0.125l8.652,10.938c0.264,0.334,0.209,0.82-0.127,1.084
		C181.488,189.904,181.32,189.957,181.152,189.957z"/>
	<path style="fill:#3F1865;" d="M145.158,175.308c-0.342,0-0.646-0.221-0.744-0.564l-6.128-21.92
		c-0.117-0.41,0.128-0.836,0.535-0.949c0.412-0.117,0.84,0.121,0.956,0.533l6.123,21.922c0.117,0.412-0.121,0.836-0.533,0.951
		C145.295,175.3,145.225,175.308,145.158,175.308z"/>
	<path style="fill:#3F1865;" d="M155.418,182.638c-0.299,0-0.59-0.174-0.711-0.469l-8.48-19.975
		c-0.168-0.391,0.016-0.844,0.408-1.01c0.396-0.168,0.85,0.014,1.017,0.404l8.475,19.977c0.168,0.393-0.016,0.846-0.408,1.012
		C155.617,182.621,155.519,182.638,155.418,182.638z"/>
	<path style="fill:#3F1865;" d="M163.195,200.667c-0.301,0-0.586-0.172-0.713-0.465l-5.516-12.803
		c-0.174-0.391,0.01-0.848,0.4-1.018c0.393-0.172,0.846,0.014,1.014,0.404l5.521,12.803c0.168,0.391-0.01,0.848-0.4,1.016
		C163.398,200.648,163.297,200.667,163.195,200.667z"/>
	<path style="fill:#3F1865;" d="M133.992,180.818c-0.413,0-0.759-0.326-0.774-0.74l-1.425-34.139
		c-0.016-0.428,0.315-0.789,0.743-0.807c0.433-0.023,0.784,0.313,0.805,0.74l1.425,34.139c0.015,0.426-0.315,0.789-0.743,0.807
		C134.011,180.818,134.001,180.818,133.992,180.818z"/>
	<path style="fill:#3F1865;" d="M140.236,186.931c-0.381,0-0.712-0.279-0.769-0.664l-3.094-21.926
		c-0.061-0.424,0.233-0.818,0.656-0.877c0.417-0.057,0.814,0.234,0.87,0.66l3.1,21.926c0.062,0.422-0.234,0.814-0.656,0.873
		C140.307,186.929,140.272,186.931,140.236,186.931z"/>
	<path style="fill:#3F1865;" d="M143.077,206.361c-0.382,0-0.713-0.277-0.764-0.66l-2.016-13.797
		c-0.066-0.422,0.229-0.816,0.651-0.879c0.417-0.059,0.814,0.232,0.876,0.654l2.015,13.797c0.062,0.42-0.229,0.813-0.651,0.875
		C143.148,206.359,143.112,206.361,143.077,206.361z"/>
	<path style="fill:#3F1865;" d="M120.178,179.125c-0.056,0-0.112-0.008-0.168-0.016c-0.418-0.096-0.682-0.508-0.591-0.922
		l1.547-7.004c0.092-0.42,0.504-0.68,0.921-0.588c0.417,0.092,0.682,0.504,0.59,0.922l-1.547,7
		C120.85,178.876,120.534,179.125,120.178,179.125z"/>
	<path style="fill:#3F1865;" d="M122.168,206.648c-0.03,0-0.061-0.002-0.091-0.008c-0.423-0.053-0.728-0.438-0.677-0.859
		l3.064-25.563c0.051-0.424,0.433-0.732,0.86-0.678c0.422,0.051,0.723,0.436,0.672,0.861l-3.059,25.563
		C122.891,206.359,122.555,206.648,122.168,206.648z"/>
	<path style="fill:#3F1865;" d="M107.108,174.406c-0.122,0-0.239-0.025-0.356-0.09c-0.376-0.195-0.524-0.658-0.326-1.041
		l3.303-6.359c0.198-0.381,0.667-0.529,1.043-0.33c0.382,0.199,0.524,0.664,0.331,1.043l-3.308,6.359
		C107.658,174.253,107.388,174.406,107.108,174.406z"/>
	<path style="fill:#3F1865;" d="M101.901,201.503c-0.097,0-0.194-0.018-0.285-0.057c-0.397-0.158-0.59-0.607-0.433-1.006
		l10.866-27.078c0.163-0.398,0.611-0.592,1.008-0.432c0.397,0.158,0.59,0.609,0.428,1.004l-10.867,27.086
		C102.497,201.32,102.206,201.503,101.901,201.503z"/>
	<path style="fill:#3F1865;" d="M90.409,172.207c-0.188,0-0.377-0.068-0.524-0.203c-0.315-0.291-0.336-0.781-0.045-1.094
		l10.144-11.027c0.29-0.316,0.779-0.338,1.094-0.047c0.315,0.289,0.336,0.777,0.046,1.092l-10.144,11.027
		C90.826,172.123,90.618,172.207,90.409,172.207z"/>
	<path style="fill:#3F1865;" d="M70.88,164.326c-0.26,0-0.509-0.125-0.657-0.359c-0.229-0.361-0.117-0.838,0.245-1.063
		l33.713-21.324c0.367-0.227,0.84-0.117,1.069,0.242c0.229,0.361,0.122,0.84-0.239,1.068l-33.719,21.316
		C71.165,164.287,71.022,164.326,70.88,164.326z"/>
	<path style="fill:#3F1865;" d="M67.52,177.478c-0.229,0-0.453-0.104-0.605-0.297c-0.265-0.336-0.209-0.818,0.132-1.084
		l36.162-28.412c0.336-0.266,0.82-0.207,1.084,0.129c0.265,0.336,0.209,0.822-0.127,1.088l-36.167,28.412
		C67.856,177.425,67.688,177.478,67.52,177.478z"/>
	<path style="fill:#3F1865;" d="M80.866,143.259c-0.326,0-0.631-0.213-0.738-0.541c-0.127-0.408,0.097-0.846,0.504-0.971
		l6.841-2.153c0.407-0.13,0.84,0.097,0.967,0.507c0.132,0.401-0.097,0.84-0.504,0.967l-6.835,2.154
		C81.019,143.244,80.942,143.259,80.866,143.259z"/>
	<path style="fill:#3F1865;" d="M90.215,144.972c-0.3,0-0.58-0.174-0.712-0.461c-0.168-0.395,0.01-0.852,0.402-1.02l13.05-5.691
		c0.397-0.171,0.85,0.008,1.018,0.398c0.173,0.393-0.005,0.847-0.397,1.022l-13.055,5.691
		C90.424,144.953,90.317,144.972,90.215,144.972z"/>
	<path style="fill:#3F1865;" d="M58.008,158.716c-0.295,0-0.581-0.176-0.708-0.465c-0.168-0.393,0.01-0.848,0.402-1.018l8.907-3.846
		c0.392-0.17,0.85,0.008,1.017,0.404c0.168,0.393-0.01,0.846-0.402,1.016l-8.912,3.846C58.217,158.693,58.11,158.716,58.008,158.716
		z"/>
	<path style="fill:#3F1865;" d="M71.786,135.78c-0.382,0-0.707-0.28-0.769-0.662c-0.056-0.425,0.234-0.816,0.657-0.878l37.404-5.364
		c0.427-0.063,0.819,0.234,0.88,0.654c0.056,0.422-0.234,0.814-0.657,0.875l-37.403,5.367
		C71.857,135.777,71.821,135.78,71.786,135.78z"/>
	<path style="fill:#3F1865;" d="M52.353,138.59c-0.382,0-0.712-0.28-0.763-0.662c-0.066-0.425,0.229-0.814,0.651-0.878l12.444-1.807
		c0.423-0.059,0.815,0.234,0.876,0.656c0.061,0.42-0.229,0.814-0.656,0.876l-12.44,1.804
		C52.425,138.587,52.389,138.59,52.353,138.59z"/>
	<path style="fill:#3F1865;" d="M106.757,120.567c-0.056,0-0.112-0.005-0.168-0.018l-29.306-6.619
		c-0.418-0.099-0.677-0.511-0.585-0.929c0.097-0.418,0.509-0.679,0.926-0.583l29.306,6.622c0.418,0.097,0.677,0.509,0.58,0.926
		C107.429,120.323,107.113,120.567,106.757,120.567z"/>
	<path style="fill:#3F1865;" d="M100.929,127.782c-0.005,0-0.01,0-0.016,0l-19.111-0.318c-0.428-0.005-0.769-0.359-0.758-0.787
		c0.005-0.427,0.361-0.746,0.784-0.758l19.111,0.315c0.428,0.008,0.768,0.359,0.759,0.787
		C101.692,127.44,101.346,127.782,100.929,127.782z"/>
	<path style="fill:#3F1865;" d="M107.866,124.359c-0.031,0-0.061-0.002-0.092-0.007L71.506,120
		c-0.422-0.051-0.723-0.438-0.672-0.863c0.051-0.422,0.433-0.728,0.86-0.674l36.264,4.357c0.427,0.051,0.727,0.435,0.677,0.86
		C108.589,124.069,108.253,124.359,107.866,124.359z"/>
	<path style="fill:#3F1865;" d="M65.948,119.331c-0.03,0-0.061-0.002-0.091-0.005l-13.844-1.651
		c-0.422-0.051-0.728-0.435-0.677-0.857c0.051-0.428,0.438-0.726,0.86-0.677l13.844,1.652c0.422,0.051,0.728,0.435,0.677,0.86
		C66.665,119.041,66.335,119.331,65.948,119.331z"/>
	<path style="fill:#3F1865;" d="M111.042,114.689c-0.117,0-0.239-0.031-0.356-0.092l-23.743-12.48
		c-0.377-0.204-0.52-0.669-0.321-1.048c0.199-0.377,0.666-0.521,1.043-0.326l23.738,12.487c0.377,0.199,0.524,0.667,0.326,1.046
		C111.592,114.541,111.322,114.689,111.042,114.689z"/>
	<path style="fill:#3F1865;" d="M109.23,118.249c-0.091,0-0.188-0.018-0.285-0.056l-39.567-15.9
		c-0.397-0.163-0.59-0.611-0.428-1.005c0.158-0.397,0.606-0.59,1.003-0.433l39.567,15.905c0.397,0.158,0.59,0.608,0.433,1.002
		C109.831,118.068,109.54,118.249,109.23,118.249z"/>
	<path style="fill:#3F1865;" d="M64.966,100.468c-0.092,0-0.188-0.015-0.285-0.051l-7.686-3.049
		c-0.397-0.158-0.59-0.608-0.433-1.005c0.158-0.397,0.606-0.587,1.003-0.433l7.685,3.046c0.397,0.16,0.591,0.608,0.438,1.002
		C65.566,100.285,65.276,100.468,64.966,100.468z"/>
	<path style="fill:#3F1865;" d="M111.556,107.25c-0.183,0-0.377-0.063-0.524-0.201l-32.67-30.24
		c-0.311-0.29-0.331-0.781-0.041-1.094c0.29-0.311,0.779-0.331,1.094-0.041l32.67,30.24c0.311,0.288,0.331,0.776,0.041,1.092
		C111.974,107.166,111.765,107.25,111.556,107.25z"/>
	<path style="fill:#3F1865;" d="M108.904,110.197c-0.163,0-0.326-0.051-0.463-0.155L82.779,90.813
		c-0.341-0.255-0.407-0.738-0.153-1.079c0.255-0.344,0.743-0.415,1.084-0.158l25.657,19.229c0.341,0.254,0.412,0.741,0.153,1.082
		C109.373,110.09,109.139,110.197,108.904,110.197z"/>
	<path style="fill:#3F1865;" d="M78.687,87.556c-0.158,0-0.326-0.051-0.463-0.152l-11.156-8.36
		c-0.341-0.254-0.413-0.741-0.158-1.082c0.26-0.344,0.743-0.41,1.084-0.155l11.156,8.357c0.346,0.257,0.413,0.74,0.158,1.082
		C79.156,87.449,78.921,87.556,78.687,87.556z"/>
	<path style="fill:#3F1865;" d="M130.296,215.417c-21.254,0-41.755-7.703-57.737-21.688l-2.062-1.801h119.596l-2.067,1.801
		C172.047,207.714,151.545,215.417,130.296,215.417z M76.056,193.99c15.269,12.508,34.421,19.367,54.24,19.367
		c19.813,0,38.965-6.859,54.241-19.367H76.056z"/>
	<g>
		<path style="fill:#3F1865;" d="M71.526,27.328c0.901-0.54,1.807-1.063,2.718-1.578l-4.815-8.393
			c-0.433-0.753-1.395-1.01-2.148-0.58c-0.753,0.433-1.013,1.395-0.58,2.148L71.526,27.328z"/>
		<path style="fill:#3F1865;" d="M76.509,24.511c0.921-0.494,1.853-0.972,2.794-1.443l-4.382-8.594
			c-0.392-0.774-1.338-1.084-2.112-0.687c-0.773,0.392-1.084,1.341-0.687,2.115L76.509,24.511z"/>
		<path style="fill:#3F1865;" d="M81.624,21.943c0.947-0.448,1.903-0.88,2.86-1.306l-3.929-8.772
			c-0.356-0.794-1.288-1.148-2.077-0.792c-0.794,0.354-1.15,1.283-0.794,2.077L81.624,21.943z"/>
		<path style="fill:#3F1865;" d="M57.53,37.207c0.809-0.667,1.628-1.318,2.453-1.962l-6.077-7.66
			c-0.54-0.68-1.532-0.794-2.209-0.255c-0.682,0.542-0.794,1.53-0.254,2.212L57.53,37.207z"/>
		<path style="fill:#3F1865;" d="M66.696,30.389c0.87-0.583,1.751-1.15,2.636-1.71l-5.247-8.171
			c-0.468-0.726-1.44-0.942-2.173-0.471c-0.728,0.471-0.941,1.44-0.473,2.171L66.696,30.389z"/>
		<path style="fill:#3F1865;" d="M86.866,19.632c0.967-0.397,1.944-0.784,2.921-1.156l-3.476-8.939
			c-0.315-0.807-1.226-1.207-2.036-0.894c-0.81,0.315-1.211,1.229-0.896,2.033L86.866,19.632z"/>
		<path style="fill:#3F1865;" d="M62.024,33.685c0.845-0.626,1.695-1.237,2.55-1.837l-5.665-7.922
			c-0.509-0.707-1.492-0.871-2.194-0.367c-0.707,0.504-0.87,1.489-0.366,2.194L62.024,33.685z"/>
		<path style="fill:#3F1865;" d="M108.808,13.105c1.023-0.193,2.056-0.379,3.095-0.547l-1.623-9.398
			c-0.148-0.855-0.962-1.433-1.817-1.285c-0.855,0.15-1.425,0.962-1.278,1.819L108.808,13.105z"/>
		<path style="fill:#3F1865;" d="M92.215,17.589c0.988-0.346,1.98-0.682,2.983-1.005l-3.023-9.085
			c-0.275-0.825-1.165-1.268-1.99-0.993c-0.82,0.273-1.268,1.163-0.993,1.988L92.215,17.589z"/>
		<path style="fill:#3F1865;" d="M114.462,12.173c1.038-0.148,2.077-0.277,3.12-0.392l-1.15-9.467
			c-0.102-0.862-0.891-1.478-1.746-1.374c-0.865,0.104-1.476,0.888-1.369,1.751L114.462,12.173z"/>
		<path style="fill:#3F1865;" d="M134.765,11.148l0.279-9.528c0.031-0.868-0.651-1.596-1.521-1.619
			c-0.86-0.038-1.593,0.654-1.618,1.522l-0.285,9.55C132.673,11.087,133.721,11.112,134.765,11.148z"/>
		<path style="fill:#3F1865;" d="M123.298,11.285l-0.672-9.51c-0.061-0.865-0.814-1.532-1.679-1.461
			c-0.865,0.063-1.517,0.814-1.461,1.68l0.677,9.528C121.206,11.43,122.249,11.354,123.298,11.285z"/>
		<path style="fill:#3F1865;" d="M97.666,15.817c1.003-0.3,2.01-0.585,3.023-0.855l-2.555-9.21
			c-0.229-0.835-1.099-1.326-1.934-1.089c-0.84,0.232-1.328,1.094-1.094,1.932L97.666,15.817z"/>
		<path style="fill:#3F1865;" d="M53.214,40.948c0.778-0.705,1.563-1.4,2.356-2.087l-6.474-7.367
			c-0.575-0.651-1.567-0.712-2.219-0.143c-0.651,0.573-0.717,1.567-0.143,2.219L53.214,40.948z"/>
		<path style="fill:#3F1865;" d="M103.204,14.321c1.013-0.247,2.036-0.484,3.064-0.703l-2.092-9.314
			c-0.193-0.847-1.033-1.379-1.878-1.191c-0.85,0.191-1.379,1.036-1.191,1.88L103.204,14.321z"/>
		<path style="fill:#3F1865;" d="M129.029,11.077l-0.193-9.533c-0.02-0.868-0.743-1.573-1.603-1.539
			c-0.871,0.015-1.563,0.735-1.543,1.6l0.193,9.553C126.932,11.115,127.975,11.089,129.029,11.077z"/>
		<path style="fill:#3F1865;" d="M9.178,96.325l9.742,2.524c0.244-1.021,0.503-2.036,0.778-3.048l-9.726-2.52
			c-0.845-0.219-1.7,0.285-1.919,1.127C7.834,95.246,8.338,96.106,9.178,96.325z"/>
		<path style="fill:#3F1865;" d="M10.791,90.363l9.594,3.003c0.295-1.01,0.605-2.013,0.926-3.011l-9.579-2.993
			c-0.83-0.259-1.71,0.199-1.969,1.031C9.504,89.22,9.967,90.104,10.791,90.363z"/>
		<path style="fill:#3F1865;" d="M12.705,84.487l9.416,3.466c0.346-0.993,0.708-1.978,1.079-2.955l-9.411-3.466
			c-0.814-0.295-1.721,0.122-2.021,0.937C11.468,83.283,11.886,84.187,12.705,84.487z"/>
		<path style="fill:#3F1865;" d="M6.862,108.454l9.956,1.555c0.142-1.046,0.3-2.079,0.473-3.11l-9.945-1.552
			c-0.86-0.132-1.659,0.453-1.796,1.311C5.417,107.515,6.002,108.322,6.862,108.454z"/>
		<path style="fill:#3F1865;" d="M6.16,114.589l10.026,1.059c0.092-1.048,0.199-2.089,0.316-3.13l-10.011-1.056
			c-0.865-0.092-1.639,0.537-1.73,1.399C4.669,113.724,5.295,114.501,6.16,114.589z"/>
		<path style="fill:#3F1865;" d="M14.904,78.71l9.223,3.927c0.397-0.975,0.804-1.939,1.222-2.898l-9.212-3.919
			c-0.799-0.346-1.72,0.028-2.061,0.83C13.733,77.445,14.105,78.369,14.904,78.71z"/>
		<path style="fill:#3F1865;" d="M7.87,102.359l9.859,2.046c0.198-1.036,0.402-2.062,0.626-3.082l-9.849-2.038
			c-0.85-0.181-1.684,0.364-1.858,1.219C6.471,101.356,7.02,102.186,7.87,102.359z"/>
		<path style="fill:#3F1865;" d="M30.076,51.852l7.904,6.021c0.621-0.847,1.252-1.682,1.898-2.512l-7.899-6.008
			c-0.688-0.527-1.675-0.392-2.204,0.298C29.251,50.34,29.384,51.328,30.076,51.852z"/>
		<path style="fill:#3F1865;" d="M5.768,120.753l10.063,0.56c0.041-1.048,0.097-2.094,0.163-3.14l-10.052-0.56
			c-0.86-0.04-1.608,0.618-1.654,1.483C4.236,119.964,4.898,120.705,5.768,120.753z"/>
		<path style="fill:#3F1865;" d="M45.177,49.038c0.697-0.779,1.41-1.552,2.132-2.311l-7.222-6.726
			c-0.631-0.593-1.628-0.56-2.219,0.079c-0.596,0.631-0.555,1.626,0.076,2.219L45.177,49.038z"/>
		<path style="fill:#3F1865;" d="M17.393,73.053l9.003,4.372c0.443-0.949,0.896-1.896,1.364-2.832l-8.993-4.37
			c-0.779-0.379-1.726-0.053-2.102,0.728C16.289,71.732,16.609,72.674,17.393,73.053z"/>
		<path style="fill:#3F1865;" d="M49.096,44.892c0.738-0.741,1.486-1.479,2.245-2.199l-6.856-7.054
			c-0.605-0.626-1.598-0.639-2.219-0.036c-0.626,0.605-0.642,1.598-0.036,2.227L49.096,44.892z"/>
		<path style="fill:#3F1865;" d="M20.162,67.521l8.759,4.807c0.494-0.924,0.993-1.848,1.506-2.761l-8.754-4.799
			c-0.764-0.415-1.715-0.138-2.133,0.621C19.123,66.151,19.398,67.106,20.162,67.521z"/>
		<path style="fill:#3F1865;" d="M23.205,62.138l8.495,5.225c0.54-0.901,1.079-1.797,1.639-2.682l-8.49-5.222
			c-0.738-0.453-1.705-0.224-2.163,0.517C22.233,60.713,22.462,61.683,23.205,62.138z"/>
		<path style="fill:#3F1865;" d="M26.514,56.914l8.209,5.629c0.58-0.876,1.171-1.741,1.771-2.601l-8.204-5.624
			c-0.717-0.491-1.695-0.308-2.189,0.41C25.613,55.441,25.796,56.42,26.514,56.914z"/>
		<path style="fill:#3F1865;" d="M41.467,53.369c0.662-0.817,1.333-1.618,2.021-2.415l-7.568-6.377
			c-0.667-0.56-1.654-0.476-2.214,0.186c-0.56,0.664-0.479,1.659,0.188,2.219L41.467,53.369z"/>
		<path style="fill:#3F1865;" d="M238.67,87.752l9.432-3.377c0.818-0.29,1.242-1.188,0.951-2.008
			c-0.291-0.814-1.191-1.242-2.01-0.952l-9.457,3.382C237.957,85.777,238.324,86.762,238.67,87.752z"/>
		<path style="fill:#3F1865;" d="M236.654,82.441l9.238-3.838c0.803-0.331,1.185-1.252,0.854-2.051
			c-0.334-0.804-1.256-1.181-2.055-0.85l-9.27,3.843C235.846,80.502,236.258,81.466,236.654,82.441z"/>
		<path style="fill:#3F1865;" d="M231.84,72.145l8.789-4.721c0.764-0.41,1.049-1.359,0.643-2.125
			c-0.414-0.769-1.365-1.056-2.129-0.646l-8.814,4.731C230.842,70.295,231.346,71.213,231.84,72.145z"/>
		<path style="fill:#3F1865;" d="M234.375,77.231l9.027-4.28c0.785-0.374,1.115-1.311,0.748-2.097
			c-0.375-0.781-1.313-1.117-2.096-0.746l-9.049,4.294C233.473,75.338,233.932,76.285,234.375,77.231z"/>
		<path style="fill:#3F1865;" d="M229.051,67.182l8.529-5.138c0.744-0.448,0.982-1.412,0.535-2.158
			c-0.447-0.746-1.41-0.985-2.158-0.535l-8.551,5.151C227.967,65.383,228.516,66.279,229.051,67.182z"/>
		<path style="fill:#3F1865;" d="M222.754,57.7l7.945-5.935c0.693-0.517,0.834-1.506,0.316-2.199
			c-0.52-0.697-1.502-0.837-2.199-0.318l-7.965,5.945C221.498,56.021,222.129,56.855,222.754,57.7z"/>
		<path style="fill:#3F1865;" d="M226.018,62.365l8.25-5.545c0.723-0.486,0.91-1.46,0.428-2.181c-0.484-0.72-1.461-0.914-2.18-0.428
			l-8.27,5.558C224.852,60.624,225.437,61.492,226.018,62.365z"/>
		<path style="fill:#3F1865;" d="M244.334,112.31c0.123,1.038,0.23,2.079,0.32,3.128l10.018-0.964
			c0.865-0.084,1.496-0.85,1.414-1.715c-0.08-0.865-0.85-1.494-1.715-1.415L244.334,112.31z"/>
		<path style="fill:#3F1865;" d="M254.926,117.493l-10.072,0.468c0.072,1.043,0.127,2.089,0.168,3.138l10.053-0.466
			c0.865-0.041,1.537-0.776,1.496-1.644C256.529,118.124,255.797,117.47,254.926,117.493z"/>
		<path style="fill:#3F1865;" d="M255.16,126.807c0.006,0,0.006,0,0.006,0c0.865,0,1.572-0.7,1.572-1.567
			c0.004-0.868-0.697-1.573-1.568-1.578l-10.076-0.03c0.014,0.71,0.029,1.41,0.029,2.12c0,0.344-0.01,0.685-0.016,1.026
			L255.16,126.807z"/>
		<path style="fill:#3F1865;" d="M239.484,90.157c0.32,0.995,0.637,1.995,0.932,3.001l9.603-2.906
			c0.83-0.252,1.299-1.13,1.043-1.957c-0.248-0.835-1.125-1.306-1.959-1.054L239.484,90.157z"/>
		<path style="fill:#3F1865;" d="M219.258,53.201l7.619-6.303c0.672-0.555,0.764-1.547,0.209-2.217
			c-0.551-0.667-1.543-0.761-2.215-0.208l-7.633,6.321C217.92,51.585,218.596,52.392,219.258,53.201z"/>
		<path style="fill:#3F1865;" d="M253.512,105.229l-9.977,1.459c0.174,1.033,0.332,2.069,0.475,3.11l9.955-1.461
			c0.859-0.124,1.455-0.924,1.328-1.781C255.166,105.695,254.367,105.105,253.512,105.229z"/>
		<path style="fill:#3F1865;" d="M241.107,95.598c0.275,1.01,0.535,2.028,0.783,3.046l9.742-2.43
			c0.846-0.211,1.359-1.066,1.145-1.909c-0.207-0.84-1.063-1.349-1.902-1.143L241.107,95.598z"/>
		<path style="fill:#3F1865;" d="M252.346,99.16l-9.885,1.955c0.225,1.021,0.434,2.048,0.627,3.079l9.863-1.947
			c0.855-0.17,1.41-0.997,1.236-1.848C254.019,99.547,253.195,98.998,252.346,99.16z"/>
		<path style="fill:#3F1865;" d="M146.191,12.143l1.23-9.454c0.113-0.86-0.492-1.646-1.354-1.759
			c-0.859-0.122-1.648,0.494-1.76,1.357l-1.243,9.469C144.115,11.871,145.152,12,146.191,12.143z"/>
		<path style="fill:#3F1865;" d="M215.543,48.88l7.277-6.66c0.643-0.585,0.688-1.58,0.098-2.219
			c-0.586-0.644-1.578-0.687-2.219-0.102l-7.295,6.673C214.127,47.33,214.84,48.101,215.543,48.88z"/>
		<path style="fill:#3F1865;" d="M162.992,15.756l2.641-9.182c0.24-0.83-0.244-1.703-1.072-1.942
			c-0.836-0.244-1.705,0.242-1.951,1.072l-2.646,9.202C160.977,15.176,161.99,15.459,162.992,15.756z"/>
		<path style="fill:#3F1865;" d="M173.803,19.553l3.557-8.909c0.326-0.799-0.066-1.718-0.875-2.039
			c-0.805-0.321-1.721,0.071-2.041,0.873l-3.568,8.924C171.857,18.772,172.836,19.156,173.803,19.553z"/>
		<path style="fill:#3F1865;" d="M168.443,17.518l3.109-9.049c0.279-0.822-0.158-1.715-0.982-2.001
			c-0.818-0.277-1.715,0.155-1.994,0.98l-3.111,9.069C166.463,16.838,167.455,17.171,168.443,17.518z"/>
		<path style="fill:#3F1865;" d="M140.486,11.504l0.764-9.505c0.071-0.865-0.575-1.621-1.44-1.69
			c-0.865-0.079-1.624,0.575-1.695,1.443l-0.758,9.52C138.404,11.336,139.448,11.413,140.486,11.504z"/>
		<path style="fill:#3F1865;" d="M157.455,14.27l2.178-9.289c0.193-0.845-0.33-1.69-1.17-1.888
			c-0.852-0.198-1.695,0.326-1.895,1.173l-2.178,9.306C155.414,13.792,156.437,14.026,157.455,14.27z"/>
		<path style="fill:#3F1865;" d="M151.852,13.067l1.705-9.38c0.152-0.855-0.412-1.672-1.268-1.827
			c-0.85-0.158-1.67,0.41-1.828,1.265l-1.709,9.398C149.789,12.688,150.822,12.873,151.852,13.067z"/>
		<path style="fill:#3F1865;" d="M179.045,21.854l4.016-8.739c0.361-0.789,0.016-1.723-0.773-2.086
			c-0.789-0.356-1.721-0.013-2.088,0.773l-4.02,8.754C177.141,20.976,178.098,21.406,179.045,21.854z"/>
		<path style="fill:#3F1865;" d="M198.66,33.56l5.746-7.869c0.51-0.703,0.355-1.685-0.346-2.194
			c-0.703-0.514-1.685-0.359-2.193,0.341l-5.758,7.889C196.971,32.326,197.82,32.937,198.66,33.56z"/>
		<path style="fill:#3F1865;" d="M203.164,37.077l6.148-7.599c0.545-0.677,0.443-1.667-0.234-2.211
			c-0.676-0.544-1.664-0.443-2.209,0.231l-6.162,7.614C201.535,35.756,202.355,36.41,203.164,37.077z"/>
		<path style="fill:#3F1865;" d="M211.619,44.745l6.91-6.993c0.617-0.616,0.607-1.611-0.01-2.222
			c-0.615-0.611-1.613-0.606-2.225,0.01l-6.932,7.008C210.127,43.271,210.875,43.999,211.619,44.745z"/>
		<path style="fill:#3F1865;" d="M189.152,27.218l4.896-8.344c0.438-0.749,0.184-1.711-0.564-2.153
			c-0.748-0.435-1.711-0.186-2.148,0.563l-4.906,8.362C187.346,26.157,188.252,26.684,189.152,27.218z"/>
		<path style="fill:#3F1865;" d="M193.988,30.275l5.324-8.12c0.479-0.726,0.27-1.7-0.453-2.176c-0.729-0.478-1.701-0.272-2.18,0.453
			l-5.334,8.136C192.236,29.125,193.117,29.69,193.988,30.275z"/>
		<path style="fill:#3F1865;" d="M184.17,24.409l4.453-8.55c0.402-0.771,0.102-1.721-0.666-2.122
			c-0.77-0.399-1.721-0.102-2.123,0.669l-4.463,8.571C182.312,23.44,183.244,23.921,184.17,24.409z"/>
		<path style="fill:#3F1865;" d="M207.49,40.803l6.535-7.301c0.58-0.649,0.525-1.642-0.121-2.222
			c-0.646-0.578-1.645-0.521-2.219,0.122l-6.557,7.327C205.924,39.411,206.713,40.1,207.49,40.803z"/>
		<path style="fill:#3F1865;" d="M189.865,223.861c-0.896,0.545-1.801,1.072-2.713,1.592l4.611,7.977
			c0.291,0.502,0.82,0.785,1.363,0.785c0.266,0,0.535-0.072,0.785-0.211c0.752-0.436,1.012-1.395,0.574-2.15L189.865,223.861z"/>
		<path style="fill:#3F1865;" d="M184.877,226.714c-0.92,0.502-1.848,0.982-2.783,1.455l4.183,8.158
			c0.279,0.545,0.834,0.855,1.404,0.855c0.24,0,0.484-0.053,0.713-0.176c0.774-0.395,1.078-1.344,0.682-2.113L184.877,226.714z"/>
		<path style="fill:#3F1865;" d="M5.692,127.686h10.072c-0.01-0.644-0.025-1.286-0.025-1.935c0-0.402,0.01-0.807,0.015-1.208H5.692
			c-0.865,0-1.568,0.702-1.568,1.573C4.124,126.98,4.827,127.686,5.692,127.686z"/>
		<path style="fill:#3F1865;" d="M212.269,206.091c-0.732,0.748-1.476,1.488-2.228,2.217l6.605,6.764
			c0.311,0.32,0.719,0.477,1.131,0.477c0.391,0,0.789-0.148,1.094-0.445c0.621-0.609,0.637-1.604,0.025-2.225L212.269,206.091z"/>
		<path style="fill:#3F1865;" d="M208.162,210.08c-0.773,0.711-1.553,1.408-2.34,2.098l6.234,7.053
			c0.311,0.352,0.742,0.531,1.176,0.531c0.371,0,0.742-0.129,1.043-0.395c0.646-0.574,0.707-1.57,0.133-2.221L208.162,210.08z"/>
		<path style="fill:#3F1865;" d="M179.752,229.322c-0.942,0.449-1.899,0.885-2.856,1.311l3.762,8.322
			c0.26,0.58,0.83,0.924,1.43,0.924c0.219,0,0.438-0.043,0.646-0.137c0.795-0.361,1.141-1.291,0.789-2.082L179.752,229.322z"/>
		<path style="fill:#3F1865;" d="M203.857,213.855c-0.811,0.674-1.619,1.334-2.443,1.988l5.842,7.309
			c0.311,0.389,0.764,0.59,1.227,0.59c0.348,0,0.693-0.111,0.982-0.344c0.678-0.541,0.789-1.529,0.244-2.209L203.857,213.855z"/>
		<path style="fill:#3F1865;" d="M199.363,217.423c-0.84,0.629-1.68,1.25-2.535,1.857l5.436,7.551
			c0.311,0.428,0.789,0.65,1.277,0.65c0.32,0,0.641-0.094,0.922-0.291c0.701-0.51,0.859-1.492,0.355-2.197L199.363,217.423z"/>
		<path style="fill:#3F1865;" d="M152.492,238.316c-1.027,0.199-2.061,0.385-3.1,0.557l1.563,8.879
			c0.133,0.764,0.799,1.301,1.547,1.301c0.092,0,0.183-0.008,0.275-0.025c0.855-0.146,1.426-0.965,1.277-1.818L152.492,238.316z"/>
		<path style="fill:#3F1865;" d="M174.5,231.664c-0.967,0.402-1.94,0.789-2.916,1.168l3.322,8.467
			c0.244,0.615,0.836,0.998,1.467,0.998c0.187,0,0.381-0.039,0.574-0.109c0.805-0.318,1.201-1.229,0.887-2.039L174.5,231.664z"/>
		<path style="fill:#3F1865;" d="M137.951,240.191l0.662,8.98c0.061,0.828,0.753,1.457,1.567,1.457c0.041,0,0.076,0,0.122-0.004
			c0.86-0.064,1.512-0.818,1.451-1.682l-0.667-8.998C140.042,240.039,139.004,240.123,137.951,240.191z"/>
		<path style="fill:#3F1865;" d="M146.807,239.273c-1.033,0.15-2.07,0.283-3.115,0.402l1.109,8.939
			c0.104,0.795,0.779,1.379,1.559,1.379c0.066,0,0.133-0.004,0.197-0.016c0.861-0.105,1.477-0.893,1.365-1.75L146.807,239.273z"/>
		<path style="fill:#3F1865;" d="M158.115,237.074c-1.018,0.25-2.035,0.488-3.063,0.713l2.004,8.797
			c0.168,0.73,0.814,1.225,1.533,1.225c0.117,0,0.234-0.012,0.352-0.041c0.844-0.193,1.373-1.035,1.18-1.881L158.115,237.074z"/>
		<path style="fill:#3F1865;" d="M169.135,233.746c-0.986,0.348-1.979,0.688-2.977,1.016l2.891,8.594
			c0.219,0.658,0.83,1.068,1.49,1.068c0.164,0,0.332-0.025,0.5-0.082c0.824-0.273,1.268-1.164,0.992-1.988L169.135,233.746z"/>
		<path style="fill:#3F1865;" d="M163.67,235.542c-1.004,0.307-2.012,0.592-3.023,0.869l2.447,8.707
			c0.193,0.695,0.824,1.146,1.512,1.146c0.143,0,0.285-0.02,0.428-0.059c0.834-0.236,1.322-1.105,1.084-1.941L163.67,235.542z"/>
		<path style="fill:#3F1865;" d="M240.879,183.111l-8.561-4.658c-0.484,0.928-0.979,1.854-1.486,2.77l8.541,4.652
			c0.238,0.127,0.498,0.191,0.752,0.191c0.555,0,1.094-0.297,1.379-0.822C241.918,184.48,241.637,183.527,240.879,183.111z"/>
		<path style="fill:#3F1865;" d="M248.283,166.126l-9.262-3.377c-0.336,0.996-0.693,1.98-1.059,2.963l9.242,3.369
			c0.178,0.066,0.361,0.098,0.539,0.098c0.643,0,1.242-0.398,1.477-1.037C249.516,167.326,249.098,166.425,248.283,166.126z"/>
		<path style="fill:#3F1865;" d="M250.172,160.244l-9.451-2.926c-0.289,1.01-0.59,2.014-0.906,3.012l9.432,2.92
			c0.152,0.045,0.31,0.07,0.463,0.07c0.672,0,1.293-0.436,1.502-1.109C251.471,161.384,251.002,160.503,250.172,160.244z"/>
		<path style="fill:#3F1865;" d="M253.062,148.24l-9.771-1.992c-0.184,1.033-0.387,2.061-0.6,3.084l9.746,1.988
			c0.102,0.02,0.209,0.031,0.311,0.031c0.732,0,1.389-0.518,1.541-1.26C254.463,149.242,253.914,148.41,253.062,148.24z"/>
		<path style="fill:#3F1865;" d="M251.771,154.277l-9.625-2.465c-0.234,1.025-0.494,2.041-0.76,3.055l9.605,2.455
			c0.127,0.033,0.26,0.051,0.387,0.051c0.701,0,1.338-0.473,1.521-1.18C253.119,155.349,252.609,154.492,251.771,154.277z"/>
		<path style="fill:#3F1865;" d="M255.103,129.841l-10.041-0.529c-0.031,1.051-0.082,2.097-0.143,3.14l10.021,0.529
			c0.031,0,0.057,0.003,0.086,0.003c0.83,0,1.522-0.654,1.568-1.491C256.641,130.624,255.975,129.884,255.103,129.841z"/>
		<path style="fill:#3F1865;" d="M254.051,142.142l-9.889-1.511c-0.133,1.041-0.285,2.08-0.449,3.113l9.859,1.506
			c0.082,0.01,0.162,0.018,0.244,0.018c0.764,0,1.436-0.557,1.553-1.334C255.496,143.072,254.91,142.273,254.051,142.142z"/>
		<path style="fill:#3F1865;" d="M254.732,136.002l-9.98-1.023c-0.086,1.051-0.184,2.095-0.295,3.133l9.955,1.02
			c0.057,0.002,0.107,0.008,0.162,0.008c0.795,0,1.482-0.605,1.563-1.413C256.225,136.861,255.598,136.091,254.732,136.002z"/>
		<path style="fill:#3F1865;" d="M132.195,240.423l0.214,8.998c0.02,0.857,0.718,1.535,1.567,1.535c0.016,0,0.025,0,0.041,0
			c0.865-0.021,1.552-0.74,1.531-1.611l-0.208-9.014C134.291,240.375,133.243,240.406,132.195,240.423z"/>
		<path style="fill:#3F1865;" d="M231.01,198.81l-7.676-5.803c-0.615,0.848-1.24,1.688-1.883,2.52l7.66,5.793
			c0.285,0.213,0.615,0.318,0.947,0.318c0.479,0,0.945-0.217,1.256-0.627C231.84,200.322,231.701,199.335,231.01,198.81z"/>
		<path style="fill:#3F1865;" d="M234.557,193.746l-7.984-5.443c-0.576,0.879-1.16,1.748-1.756,2.609l7.975,5.434
			c0.269,0.182,0.576,0.27,0.881,0.27c0.504,0,0.998-0.242,1.303-0.688C235.463,195.207,235.275,194.232,234.557,193.746z"/>
		<path style="fill:#3F1865;" d="M219.869,197.548c-0.656,0.814-1.328,1.623-2.006,2.42l7.324,6.141
			c0.295,0.246,0.656,0.369,1.014,0.369c0.447,0,0.891-0.195,1.205-0.564c0.555-0.664,0.469-1.654-0.199-2.217L219.869,197.548z"/>
		<path style="fill:#3F1865;" d="M237.85,188.505l-8.279-5.059c-0.529,0.906-1.074,1.803-1.625,2.695l8.266,5.049
			c0.26,0.158,0.541,0.229,0.82,0.229c0.529,0,1.049-0.266,1.344-0.752C238.828,189.927,238.594,188.958,237.85,188.505z"/>
		<path style="fill:#3F1865;" d="M246.102,171.91l-9.051-3.82c-0.387,0.977-0.793,1.943-1.205,2.906l9.029,3.809
			c0.203,0.084,0.406,0.129,0.609,0.129c0.617,0,1.197-0.367,1.451-0.965C247.277,173.166,246.9,172.246,246.102,171.91z"/>
		<path style="fill:#3F1865;" d="M243.627,177.576l-8.811-4.25c-0.438,0.957-0.891,1.902-1.348,2.844l8.795,4.236
			c0.219,0.109,0.453,0.158,0.682,0.158c0.586,0,1.145-0.328,1.42-0.891C244.742,178.892,244.41,177.951,243.627,177.576z"/>
		<path style="fill:#3F1865;" d="M216.174,201.912c-0.691,0.781-1.4,1.559-2.117,2.322l6.979,6.463
			c0.299,0.279,0.682,0.422,1.068,0.422c0.416,0,0.844-0.17,1.15-0.506c0.59-0.639,0.555-1.633-0.088-2.221L216.174,201.912z"/>
		<path style="fill:#3F1865;" d="M194.695,220.759c-0.865,0.588-1.74,1.162-2.627,1.729l5.029,7.771
			c0.301,0.465,0.805,0.721,1.324,0.721c0.289,0,0.584-0.082,0.85-0.252c0.727-0.475,0.936-1.449,0.467-2.174L194.695,220.759z"/>
		<path style="fill:#3F1865;" d="M31.756,184.228l-8.281,5.023c-0.743,0.453-0.982,1.418-0.529,2.16
			c0.295,0.49,0.814,0.756,1.343,0.756c0.28,0,0.56-0.07,0.814-0.227l8.291-5.029C32.835,186.027,32.29,185.132,31.756,184.228z"/>
		<path style="fill:#3F1865;" d="M28.967,179.255l-8.556,4.625c-0.764,0.414-1.049,1.365-0.636,2.133
			c0.285,0.525,0.824,0.824,1.384,0.824c0.254,0,0.509-0.059,0.748-0.191l8.566-4.629C29.959,181.103,29.455,180.183,28.967,179.255
			z"/>
		<path style="fill:#3F1865;" d="M26.432,174.152l-8.81,4.211c-0.784,0.377-1.12,1.316-0.743,2.098
			c0.269,0.566,0.834,0.895,1.42,0.895c0.229,0,0.458-0.049,0.677-0.154l8.82-4.217C27.328,176.046,26.875,175.103,26.432,174.152z"
			/>
		<path style="fill:#3F1865;" d="M24.152,168.931l-9.044,3.785c-0.799,0.336-1.175,1.256-0.845,2.059
			c0.254,0.6,0.84,0.961,1.456,0.961c0.199,0,0.407-0.035,0.606-0.119l9.054-3.789C24.956,170.869,24.549,169.904,24.152,168.931z"
			/>
		<path style="fill:#3F1865;" d="M34.789,189.062l-7.985,5.406c-0.718,0.484-0.911,1.459-0.422,2.182
			c0.305,0.451,0.799,0.689,1.303,0.689c0.305,0,0.611-0.086,0.88-0.27l7.996-5.41C35.96,190.798,35.37,189.939,34.789,189.062z"/>
		<path style="fill:#3F1865;" d="M41.563,198.253l-7.339,6.115c-0.667,0.555-0.758,1.545-0.204,2.211
			c0.311,0.375,0.758,0.57,1.207,0.57c0.356,0,0.712-0.123,1.008-0.367l7.349-6.119C42.897,199.869,42.23,199.068,41.563,198.253z"
			/>
		<path style="fill:#3F1865;" d="M38.062,193.738l-7.675,5.771c-0.692,0.52-0.83,1.508-0.31,2.201
			c0.31,0.41,0.779,0.629,1.257,0.629c0.331,0,0.662-0.102,0.946-0.318l7.681-5.773C39.314,195.421,38.683,194.583,38.062,193.738z"
			/>
		<path style="fill:#3F1865;" d="M5.956,133.858l10.037-0.501c-0.066-1.043-0.122-2.087-0.163-3.138l-10.027,0.496
			c-0.87,0.046-1.537,0.781-1.491,1.646c0.041,0.84,0.733,1.496,1.567,1.496C5.906,133.858,5.931,133.858,5.956,133.858z"/>
		<path style="fill:#3F1865;" d="M22.142,163.605l-9.258,3.344c-0.814,0.295-1.237,1.197-0.941,2.014
			c0.229,0.641,0.835,1.041,1.476,1.041c0.178,0,0.356-0.033,0.534-0.098l9.268-3.346C22.849,165.58,22.488,164.601,22.142,163.605z
			"/>
		<path style="fill:#3F1865;" d="M7.412,146.121l9.884-1.479c-0.173-1.033-0.331-2.07-0.474-3.113l-9.879,1.478
			c-0.855,0.131-1.451,0.93-1.318,1.789c0.117,0.775,0.784,1.336,1.552,1.336C7.254,146.132,7.331,146.13,7.412,146.121z"/>
		<path style="fill:#3F1865;" d="M45.289,202.591l-6.993,6.439c-0.641,0.584-0.682,1.582-0.091,2.221
			c0.31,0.34,0.732,0.506,1.155,0.506c0.381,0,0.763-0.137,1.063-0.414l7.004-6.443C46.699,204.142,45.992,203.371,45.289,202.591z"
			/>
		<path style="fill:#3F1865;" d="M6.532,140.007l9.976-0.989c-0.122-1.041-0.224-2.087-0.321-3.133l-9.965,0.992
			c-0.865,0.084-1.497,0.855-1.41,1.715c0.082,0.817,0.764,1.421,1.562,1.421C6.425,140.013,6.48,140.01,6.532,140.007z"/>
		<path style="fill:#3F1865;" d="M21.327,161.193c-0.321-0.992-0.631-1.996-0.932-3l-9.446,2.893
			c-0.83,0.25-1.293,1.131-1.043,1.959c0.209,0.68,0.83,1.113,1.507,1.113c0.152,0,0.305-0.023,0.458-0.068L21.327,161.193z"/>
		<path style="fill:#3F1865;" d="M8.598,152.179l9.762-1.959c-0.219-1.023-0.428-2.053-0.621-3.082l-9.762,1.957
			c-0.85,0.17-1.4,0.996-1.232,1.85c0.153,0.748,0.804,1.268,1.543,1.268C8.389,152.212,8.491,152.203,8.598,152.179z"/>
		<path style="fill:#3F1865;" d="M19.708,155.744c-0.275-1.01-0.534-2.027-0.779-3.045l-9.614,2.428
			c-0.845,0.211-1.353,1.068-1.14,1.91c0.178,0.713,0.82,1.189,1.522,1.189c0.127,0,0.26-0.021,0.387-0.051L19.708,155.744z"/>
		<path style="fill:#3F1865;" d="M81.935,229.705l-3.787,8.311c-0.361,0.793-0.01,1.727,0.779,2.082
			c0.209,0.098,0.433,0.143,0.651,0.143c0.595,0,1.166-0.342,1.43-0.922l3.791-8.32C83.833,230.58,82.881,230.15,81.935,229.705z"/>
		<path style="fill:#3F1865;" d="M98.063,235.804l-2.474,8.699c-0.234,0.832,0.25,1.701,1.085,1.941
			c0.142,0.037,0.29,0.061,0.427,0.061c0.687,0,1.318-0.453,1.512-1.145l2.479-8.711C100.079,236.384,99.071,236.099,98.063,235.804
			z"/>
		<path style="fill:#3F1865;" d="M92.587,234.042l-2.916,8.584c-0.28,0.824,0.163,1.715,0.982,1.992
			c0.168,0.057,0.341,0.088,0.509,0.088c0.651,0,1.262-0.416,1.486-1.068l2.917-8.6C94.567,234.722,93.575,234.39,92.587,234.042z"
			/>
		<path style="fill:#3F1865;" d="M87.202,232.007l-3.349,8.457c-0.321,0.809,0.071,1.721,0.88,2.041
			c0.188,0.076,0.387,0.111,0.58,0.111c0.621,0,1.216-0.377,1.461-0.992l3.354-8.473C89.146,232.787,88.169,232.404,87.202,232.007z
			"/>
		<path style="fill:#3F1865;" d="M49.224,206.746l-6.627,6.74c-0.605,0.619-0.601,1.617,0.015,2.225
			c0.311,0.301,0.707,0.451,1.104,0.451c0.407,0,0.814-0.158,1.125-0.469l6.637-6.754C50.715,208.216,49.966,207.486,49.224,206.746
			z"/>
		<path style="fill:#3F1865;" d="M109.266,238.486l-1.588,8.869c-0.152,0.855,0.418,1.672,1.272,1.824
			c0.092,0.018,0.183,0.029,0.28,0.029c0.743,0,1.405-0.537,1.542-1.299l1.593-8.887
			C111.322,238.855,110.294,238.677,109.266,238.486z"/>
		<path style="fill:#3F1865;" d="M120.682,240.029l-0.692,8.973c-0.066,0.867,0.58,1.623,1.451,1.688
			c0.041,0.002,0.081,0.006,0.117,0.006c0.814,0,1.507-0.627,1.568-1.451l0.692-8.998
			C122.769,240.189,121.72,240.115,120.682,240.029z"/>
		<path style="fill:#3F1865;" d="M114.956,239.4l-1.145,8.93c-0.107,0.863,0.504,1.646,1.364,1.758
			c0.066,0.012,0.132,0.016,0.199,0.016c0.779,0,1.456-0.58,1.563-1.373l1.135-8.951C117.027,239.666,115.989,239.541,114.956,239.4
			z"/>
		<path style="fill:#3F1865;" d="M103.632,237.289l-2.031,8.789c-0.199,0.848,0.33,1.688,1.175,1.887
			c0.122,0.027,0.239,0.039,0.356,0.039c0.712,0,1.364-0.49,1.532-1.219l2.031-8.807
			C105.667,237.761,104.649,237.533,103.632,237.289z"/>
		<path style="fill:#3F1865;" d="M57.708,214.441l-5.869,7.291c-0.544,0.674-0.433,1.666,0.245,2.209
			c0.29,0.236,0.636,0.348,0.982,0.348c0.463,0,0.917-0.197,1.227-0.588l5.869-7.303C59.336,215.755,58.517,215.103,57.708,214.441z
			"/>
		<path style="fill:#3F1865;" d="M53.366,210.695l-6.25,7.029c-0.575,0.648-0.519,1.643,0.132,2.219
			c0.295,0.268,0.672,0.396,1.044,0.396c0.433,0,0.865-0.178,1.176-0.527l6.26-7.039C54.929,212.091,54.145,211.402,53.366,210.695z
			"/>
		<path style="fill:#3F1865;" d="M62.227,217.964l-5.466,7.535c-0.509,0.703-0.351,1.688,0.351,2.197
			c0.28,0.203,0.601,0.297,0.921,0.297c0.488,0,0.967-0.223,1.272-0.646l5.476-7.547C63.922,219.199,63.067,218.585,62.227,217.964z
			"/>
		<path style="fill:#3F1865;" d="M126.433,240.365l-0.239,9c-0.025,0.869,0.662,1.592,1.527,1.615c0.016,0,0.031,0,0.046,0
			c0.85,0,1.547-0.678,1.568-1.531l0.239-9.016C128.525,240.425,127.477,240.406,126.433,240.365z"/>
		<path style="fill:#3F1865;" d="M76.789,227.14l-4.219,8.15c-0.397,0.768-0.097,1.717,0.677,2.117
			c0.229,0.119,0.479,0.176,0.723,0.176c0.57,0,1.115-0.309,1.395-0.85l4.219-8.16C78.646,228.111,77.71,227.632,76.789,227.14z"/>
		<path style="fill:#3F1865;" d="M71.781,224.324l-4.642,7.967c-0.433,0.748-0.184,1.713,0.57,2.146
			c0.249,0.146,0.519,0.217,0.789,0.217c0.544,0,1.069-0.279,1.359-0.781l4.646-7.979C73.587,225.386,72.676,224.865,71.781,224.324
			z"/>
		<path style="fill:#3F1865;" d="M66.92,221.263l-5.054,7.76c-0.474,0.73-0.27,1.701,0.463,2.176
			c0.265,0.172,0.56,0.254,0.855,0.254c0.514,0,1.018-0.25,1.318-0.713l5.059-7.773C68.676,222.412,67.795,221.843,66.92,221.263z"
			/>
	</g>
	<g>
		<path style="fill:#3F1865;" d="M185.412,149.49l-8.582,34.559H84.021v-5.926c1.771-0.152,3.848-0.391,6.23-0.723
			c2.377-0.324,3.95-0.643,4.708-0.949c1.822-0.709,3.089-1.697,3.797-2.961c0.708-1.262,1.063-2.889,1.063-4.863V83.97
			c0-1.822-0.28-3.329-0.834-4.52c-0.56-1.186-1.899-2.267-4.026-3.227c-1.573-0.71-3.456-1.277-5.66-1.707
			c-2.199-0.43-3.96-0.751-5.278-0.952v-5.922h59.167v5.922c-1.623,0.153-3.532,0.369-5.735,0.646
			c-2.204,0.277-4.118,0.672-5.736,1.176c-1.975,0.659-3.293,1.685-3.95,3.077c-0.657,1.392-0.987,2.975-0.987,4.746v79.493
			c0,3.344,0.229,5.977,0.687,7.898c0.453,1.926,1.339,3.344,2.657,4.254c1.313,0.965,3.151,1.586,5.507,1.861
			c2.352,0.279,5.604,0.418,9.756,0.418c4.051,0,7.986-0.24,11.813-0.719c3.822-0.48,6.572-1.531,8.24-3.154
			c2.582-2.584,5.229-6.215,7.936-10.9c2.707-4.682,4.871-8.971,6.494-12.871H185.412z"/>
	</g>
	<path style="fill:#3F1865;" d="M73.572,152.687c0,0-2.749-2.061-4.123-3.781c16.496-15.461,43.639-24.397,53.604-24.74
		l-0.341,4.122C89.727,133.444,73.73,152.384,73.572,152.687z"/>
	<path style="fill:#3F1865;" d="M196.518,67.383c-13.457,23.158-29.479,35.75-46.488,46.061c-6.826,4.138-15.722,6.932-19.758,8.034
		l0.396,4.211c3.191-0.822,11.401-3.285,21.524-8.988c11.773-6.637,32.838-25.573,45.496-47.359L196.518,67.383z"/>
	<path style="fill:#3F1865;" d="M148.1,112.712c-1.893-0.873-2.662-3.812-0.941-9.291c0.717-2.301,2.041-8.487,5.482-6.556
		c1.898,1.061,1.109,5.904,0.273,10.884C152.115,112.508,149.992,113.585,148.1,112.712z"/>
	<path style="fill:#3F1865;" d="M151.088,113.35c-1.252-0.611-0.896-3.232,2.32-8.438c1.354-2.186,4.484-7.996,6.646-6.568
		c1.191,0.784-1.059,5.313-3.395,9.971C154.432,112.762,152.34,113.966,151.088,113.35z"/>
	<path style="fill:#3F1865;" d="M150.879,117.193c0.188-1.379,2.789-1.868,8.738-0.448c2.504,0.595,9.004,1.743,8.326,4.247
		c-0.371,1.377-5.373,0.662-10.535-0.092C152.492,120.181,150.689,118.577,150.879,117.193z"/>
	<path style="fill:#3F1865;" d="M152.879,112.961c-0.168-1.382,2.219-2.522,8.336-2.662c2.57-0.061,9.152-0.616,9.137,1.98
		c-0.01,1.425-5.033,2.01-10.209,2.601C155.199,115.437,153.053,114.348,152.879,112.961z"/>
	<path style="fill:#3F1865;" d="M167.562,102.066c-1.394-0.021-2.189-2.545-1.486-8.622c0.301-2.555,0.666-9.149,3.232-8.772
		c1.41,0.208,1.293,5.26,1.16,10.472C170.336,100.115,168.957,102.092,167.562,102.066z"/>
	<path style="fill:#3F1865;" d="M169.791,101.545c-1.332-0.417-1.379-3.062,1.014-8.696c1.014-2.364,3.227-8.584,5.584-7.497
		c1.293,0.596-0.25,5.41-1.854,10.37C173.004,100.453,171.121,101.957,169.791,101.545z"/>
	<path style="fill:#3F1865;" d="M170,103.527c-0.184-1.239,1.766-2.382,6.855-2.82c2.139-0.181,7.6-1.008,7.666,1.331
		c0.041,1.283-4.123,2.059-8.414,2.85C172.012,105.637,170.189,104.761,170,103.527z"/>
	<path style="fill:#3F1865;" d="M170.514,101.1c-0.574-1.272,1.359-3.069,7.152-5.044c2.432-0.832,8.545-3.334,9.309-0.855
		c0.418,1.361-4.193,3.428-8.957,5.545C173.471,102.766,171.096,102.367,170.514,101.1z"/>
	<path style="fill:#3F1865;" d="M183.213,86.429c-1.379,0.198-2.564-2.166-2.83-8.278c-0.117-2.57-0.803-9.136,1.793-9.174
		c1.424-0.018,2.111,4.988,2.809,10.154C185.646,84.062,184.598,86.232,183.213,86.429z"/>
	<path style="fill:#3F1865;" d="M185.184,86.591c-1.365-0.244-1.936-2.606-0.764-7.886c0.494-2.219,1.379-8.006,3.857-7.266
		c1.363,0.407,0.846,4.874,0.295,9.472C188.049,85.304,186.541,86.833,185.184,86.591z"/>
	<path style="fill:#3F1865;" d="M185.121,87.479c-0.375-1.191,1.365-2.631,6.316-3.866c2.088-0.524,7.346-2.206,7.783,0.089
		c0.238,1.262-3.742,2.69-7.854,4.153C187.443,89.248,185.504,88.671,185.121,87.479z"/>
	<path style="fill:#3F1865;" d="M185.738,84.556c-0.631-1.222,0.711-3.107,5.176-5.382c1.873-0.952,6.529-3.761,7.467-1.354
		c0.52,1.321-2.973,3.616-6.582,5.975C188.363,86.039,186.373,85.777,185.738,84.556z"/>
	<path style="fill:#3F1865;" d="M194.115,70.422c-1.059,0.079-2.041-1.321-2.418-4.861c-0.158-1.489-0.869-5.303,1.135-5.253
		c1.105,0.028,1.777,2.937,2.453,5.945C195.932,69.121,195.18,70.345,194.115,70.422z"/>
	<path style="fill:#3F1865;" d="M195.723,70.506c-1.369-0.323-2.162-2.316-1.5-6.53c0.273-1.774,0.6-6.433,3.119-5.588
		c1.379,0.463,1.293,4.072,1.191,7.79C198.432,69.722,197.088,70.834,195.723,70.506z"/>
	<path style="fill:#3F1865;" d="M195.693,71.412c-0.281-1.196,0.916-2.608,4.352-3.772c1.445-0.489,5.09-2.089,5.43,0.211
		c0.189,1.262-2.57,2.628-5.42,4.028C197.342,73.213,195.978,72.607,195.693,71.412z"/>
	<path style="fill:#3F1865;" d="M195.82,69.737c-1.186-1.082-0.824-3.538,2.295-7.457c1.309-1.646,4.348-6.202,6.393-3.97
		c1.125,1.227-1.063,4.845-3.334,8.561C199.012,70.422,197.012,70.816,195.82,69.737z"/>
	<path style="fill:#3F1865;" d="M161.236,90.902c0,0.651-0.525,1.178-1.176,1.178c-0.646,0-1.176-0.527-1.176-1.178
		c0-0.646,0.529-1.176,1.176-1.176C160.711,89.727,161.236,90.256,161.236,90.902z"/>
	<path style="fill:#3F1865;" d="M150.004,123.092c0,0.646-0.525,1.176-1.176,1.176c-0.652,0-1.176-0.529-1.176-1.176
		c0-0.649,0.524-1.176,1.176-1.176C149.478,121.916,150.004,122.443,150.004,123.092z"/>
	<path style="fill:#3F1865;" d="M141.239,141.791c0,0.652-0.524,1.18-1.176,1.18c-0.647,0-1.176-0.527-1.176-1.18
		c0-0.648,0.529-1.175,1.176-1.175C140.714,140.615,141.239,141.143,141.239,141.791z"/>
	<path style="fill:#3F1865;" d="M180.445,111.286c0,0.649-0.525,1.171-1.176,1.171c-0.652,0-1.176-0.522-1.176-1.171
		s0.523-1.178,1.176-1.178C179.92,110.108,180.445,110.637,180.445,111.286z"/>
	<path style="fill:#3F1865;" d="M196.904,95.608c0,0.649-0.523,1.173-1.176,1.173c-0.646,0-1.176-0.524-1.176-1.173
		c0-0.652,0.529-1.178,1.176-1.178C196.381,94.43,196.904,94.956,196.904,95.608z"/>
	<path style="fill:#3F1865;" d="M204.641,99.527c0,0.649-0.529,1.176-1.182,1.176c-0.647,0-1.17-0.527-1.17-1.176
		s0.523-1.178,1.17-1.178C204.111,98.349,204.641,98.878,204.641,99.527z"/>
	<path style="fill:#3F1865;" d="M223.191,91.281c0,0.646-0.523,1.176-1.176,1.176c-0.645,0-1.174-0.529-1.174-1.176
		c0-0.648,0.529-1.175,1.174-1.175C222.668,90.106,223.191,90.633,223.191,91.281z"/>
	<path style="fill:#3F1865;" d="M213.4,105.711c0,0.649-0.525,1.176-1.176,1.176c-0.652,0-1.176-0.527-1.176-1.176
		c0-0.649,0.523-1.173,1.176-1.173C212.875,104.538,213.4,105.062,213.4,105.711z"/>
	<path style="fill:#3F1865;" d="M197.275,108.805c0,1.135-0.92,2.059-2.061,2.059c-1.135,0-2.057-0.924-2.057-2.059
		c0-1.135,0.922-2.059,2.057-2.059C196.355,106.747,197.275,107.67,197.275,108.805z"/>
	<path style="fill:#3F1865;" d="M212.738,87.671c0,1.135-0.922,2.059-2.061,2.059c-1.137,0-2.057-0.924-2.057-2.059
		c0-1.135,0.92-2.056,2.057-2.056C211.816,85.614,212.738,86.536,212.738,87.671z"/>
	<path style="fill:#3F1865;" d="M215.832,100.044c0,1.135-0.92,2.054-2.055,2.054c-1.137,0-2.063-0.919-2.063-2.054
		c0-1.138,0.926-2.059,2.063-2.059C214.912,97.984,215.832,98.906,215.832,100.044z"/>
	<path style="fill:#3F1865;" d="M187.498,62.683c0,0.649-0.523,1.176-1.176,1.176c-0.65,0-1.176-0.527-1.176-1.176
		c0-0.651,0.525-1.178,1.176-1.178C186.975,61.504,187.498,62.031,187.498,62.683z"/>
	<path style="fill:#3F1865;" d="M203.572,76.005c0,0.651-0.529,1.178-1.176,1.178c-0.652,0-1.176-0.527-1.176-1.178
		c0-0.646,0.523-1.173,1.176-1.173C203.043,74.832,203.572,75.358,203.572,76.005z"/>
	<path style="fill:#3F1865;" d="M173.691,78.392c0,1.015-0.82,1.84-1.838,1.84c-1.014,0-1.838-0.825-1.838-1.84
		c0-1.016,0.824-1.837,1.838-1.837C172.871,76.555,173.691,77.377,173.691,78.392z"/>
	<path style="fill:#3F1865;" d="M140.216,130.451c0,1.507-1.222,2.73-2.729,2.73s-2.728-1.224-2.728-2.73
		c0-1.507,1.221-2.728,2.728-2.728S140.216,128.944,140.216,130.451z"/>
	<path style="fill:#3F1865;" d="M171.654,62.26c0,1.509-1.221,2.731-2.723,2.731c-1.512,0-2.732-1.222-2.732-2.731
		c0-1.501,1.221-2.723,2.732-2.723C170.434,59.538,171.654,60.759,171.654,62.26z"/>
	<path style="fill:#3F1865;" d="M202.004,52.096c0,0.649-0.529,1.176-1.176,1.176c-0.65,0-1.176-0.527-1.176-1.176
		c0-0.646,0.525-1.175,1.176-1.175C201.475,50.921,202.004,51.45,202.004,52.096z"/>
	<path style="fill:#3F1865;" d="M130.469,235.107c-60.307,0-109.366-49.059-109.366-109.366
		c0-60.302,49.059-109.366,109.366-109.366c60.302,0,109.367,49.064,109.367,109.366
		C239.836,186.048,190.771,235.107,130.469,235.107z M130.469,18.439c-59.167,0-107.305,48.138-107.305,107.302
		c0,59.167,48.138,107.306,107.305,107.306c59.167,0,107.3-48.139,107.3-107.306C237.769,66.576,189.637,18.439,130.469,18.439z"/>
	<path style="fill:#3F1865;" d="M75.328,195.66c-0.229,0-0.458-0.078-0.646-0.229c-21.274-17.057-33.48-42.455-33.48-69.69
		c0-49.217,40.045-89.262,89.267-89.262c19.392,0,37.841,6.115,53.339,17.686c0.453,0.341,0.549,0.985,0.209,1.44
		c-0.342,0.458-0.988,0.552-1.441,0.211c-15.141-11.299-33.158-17.277-52.107-17.277c-48.087,0-87.201,39.122-87.201,87.201
		c0,26.606,11.915,51.421,32.701,68.079c0.448,0.359,0.514,1.006,0.163,1.447C75.929,195.527,75.628,195.66,75.328,195.66z"/>
	<path style="fill:#3F1865;" d="M179.752,199.517H80.275c-0.57,0-1.033-0.457-1.033-1.027c0-0.57,0.463-1.031,1.033-1.031h99.477
		c0.57,0,1.029,0.461,1.029,1.031C180.781,199.06,180.322,199.517,179.752,199.517z"/>
	<path style="fill:#3F1865;" d="M172.021,204.673H89.04c-0.57,0-1.033-0.461-1.033-1.031c0-0.568,0.463-1.033,1.033-1.033h82.982
		c0.57,0,1.027,0.465,1.027,1.033C173.049,204.212,172.592,204.673,172.021,204.673z"/>
	<path style="fill:#3F1865;" d="M160.168,209.83H99.346c-0.57,0-1.028-0.461-1.028-1.033c0-0.568,0.458-1.029,1.028-1.029h60.822
		c0.57,0,1.027,0.461,1.027,1.029C161.195,209.369,160.738,209.83,160.168,209.83z"/>
</g>
<g>
	<path style="fill:#3F1865;" d="M57.457,185.483l-6.219,4.917l-1.248-1.578l6.22-4.917L57.457,185.483z"/>
	<path style="fill:#3F1865;" d="M49.625,174.312l-6.972,3.775l-0.984-1.817l2.302-4.144c0.124-0.226,0.255-0.442,0.394-0.651
		c0.139-0.21,0.283-0.411,0.436-0.604c-0.219,0.191-0.439,0.364-0.663,0.52c-0.223,0.156-0.453,0.298-0.69,0.427l-3.239,1.754
		l-0.933-1.725l6.971-3.774l0.935,1.723l-2.269,4.312c-0.084,0.157-0.192,0.336-0.325,0.538c-0.133,0.203-0.285,0.42-0.46,0.652
		c0.167-0.175,0.349-0.336,0.546-0.482c0.197-0.146,0.41-0.282,0.639-0.406l3.376-1.828L49.625,174.312z"/>
	<path style="fill:#3F1865;" d="M31.908,140.275c-0.202,0.257-0.341,0.529-0.414,0.817c-0.073,0.288-0.083,0.59-0.03,0.906
		c0.105,0.63,0.407,1.108,0.905,1.439c0.499,0.329,1.089,0.436,1.768,0.322c0.68-0.113,1.201-0.407,1.565-0.881
		c0.364-0.474,0.493-1.025,0.388-1.654c-0.057-0.337-0.172-0.63-0.348-0.879c-0.176-0.25-0.406-0.452-0.691-0.606l1.093-1.508
		c0.463,0.316,0.839,0.706,1.125,1.17c0.287,0.464,0.48,0.995,0.581,1.595c0.097,0.576,0.089,1.127-0.023,1.653
		c-0.112,0.525-0.328,1.01-0.648,1.454c-0.31,0.441-0.693,0.803-1.154,1.082c-0.459,0.278-0.978,0.467-1.554,0.563
		c-0.581,0.098-1.134,0.09-1.663-0.023c-0.529-0.114-1.013-0.329-1.449-0.646c-0.442-0.313-0.8-0.699-1.074-1.158
		c-0.273-0.459-0.461-0.979-0.558-1.563c-0.099-0.586-0.09-1.145,0.025-1.674c0.115-0.53,0.334-1.017,0.656-1.461L31.908,140.275z"
		/>
	<path style="fill:#3F1865;" d="M36.435,127.839l-7.864-2.904l0.059-2.456l7.988-2.535l-0.048,2.107l-1.158,0.297l-0.07,3.049
		l1.142,0.346L36.435,127.839z M33.858,124.907l0.05-2.138l-3.696,0.983L33.858,124.907z"/>
	<path style="fill:#3F1865;" d="M36.036,107.369c0.257,0.043,0.479-0.006,0.663-0.149c0.185-0.143,0.309-0.361,0.369-0.655
		c0.06-0.291,0.046-0.534-0.046-0.729c-0.093-0.195-0.247-0.315-0.466-0.361c-0.191-0.04-0.372,0.007-0.542,0.143
		c-0.169,0.135-0.402,0.442-0.699,0.922c-0.027,0.046-0.07,0.119-0.129,0.217c-0.334,0.559-0.644,0.963-0.931,1.213
		c-0.25,0.221-0.536,0.368-0.858,0.444c-0.32,0.076-0.663,0.076-1.027,0c-0.701-0.146-1.219-0.507-1.552-1.08
		c-0.334-0.573-0.418-1.254-0.253-2.041c0.182-0.869,0.525-1.493,1.032-1.872c0.507-0.378,1.145-0.493,1.914-0.342l-0.364,1.766
		c-0.289-0.053-0.53-0.018-0.724,0.107c-0.193,0.125-0.318,0.328-0.378,0.609c-0.057,0.268-0.035,0.496,0.063,0.684
		c0.099,0.188,0.259,0.305,0.479,0.351c0.317,0.066,0.695-0.255,1.135-0.963c0.088-0.144,0.158-0.255,0.208-0.334
		c0.026-0.043,0.068-0.108,0.125-0.197c0.404-0.646,0.788-1.079,1.151-1.296c0.224-0.136,0.465-0.222,0.718-0.259
		c0.256-0.037,0.526-0.024,0.813,0.035c0.754,0.158,1.305,0.545,1.651,1.161c0.347,0.616,0.431,1.358,0.248,2.228
		c-0.171,0.817-0.522,1.421-1.054,1.812c-0.531,0.391-1.176,0.519-1.931,0.385L36.036,107.369z"/>
	<path style="fill:#3F1865;" d="M42.336,93.343l-7.334-3.012l0.756-1.842l2.873,1.18l0.963-2.343l-2.873-1.179l0.757-1.842
		l7.332,3.012l-0.756,1.842l-2.976-1.222l-0.961,2.343l2.975,1.222L42.336,93.343z"/>
	<path style="fill:#3F1865;" d="M58.595,65.376l-7.313-3.716l1.347-1.506l3.74,2.217c0.042,0.024,0.194,0.124,0.46,0.299
		c0.265,0.176,0.484,0.322,0.66,0.439c-0.159-0.166-0.309-0.33-0.449-0.492c-0.142-0.162-0.271-0.323-0.391-0.484l-2.615-3.55
		l1.386-1.548l3.817,2.206c0.175,0.102,0.352,0.214,0.526,0.335c0.175,0.121,0.354,0.251,0.536,0.392
		c-0.139-0.164-0.308-0.367-0.509-0.608c-0.201-0.241-0.317-0.382-0.349-0.424l-2.618-3.471l1.349-1.506l4.503,6.857l-1.301,1.453
		l-3.929-2.278c-0.067-0.037-0.176-0.104-0.329-0.202c-0.153-0.098-0.401-0.263-0.748-0.495c0.155,0.188,0.298,0.366,0.431,0.534
		c0.133,0.169,0.254,0.325,0.365,0.469l2.737,3.619L58.595,65.376z"/>
	<path style="fill:#3F1865;" d="M72.163,52.174l-4.791-6.316l3.539-2.685l0.927,1.223l-1.953,1.482l0.981,1.292l1.952-1.482
		l0.927,1.223l-1.952,1.481l0.985,1.3l1.953-1.482l0.972,1.279L72.163,52.174z"/>
	<path style="fill:#3F1865;" d="M98.335,37.5l-2.112-5.953l-1.686,0.598l-0.538-1.518l5.241-1.861l0.539,1.518l-1.681,0.597
		l2.113,5.953L98.335,37.5z"/>
	<path style="fill:#3F1865;" d="M112.38,33.498l-1.34-7.813l2.865-0.492c0.876-0.15,1.608-0.043,2.198,0.322
		c0.591,0.364,0.952,0.93,1.083,1.695c0.104,0.603,0.032,1.118-0.213,1.547c-0.245,0.429-0.63,0.714-1.153,0.856l2.591,2.85
		l-2.36,0.405l-2.278-3.032l0.569,3.325L112.38,33.498z M113.798,26.778l-0.534,0.092l0.371,2.162l0.583-0.1
		c0.377-0.065,0.651-0.209,0.823-0.434c0.172-0.225,0.228-0.514,0.166-0.866c-0.061-0.36-0.207-0.609-0.438-0.75
		C114.538,26.741,114.213,26.707,113.798,26.778z"/>
	<path style="fill:#3F1865;" d="M131.505,23.735l-0.073,4.392c-0.012,0.685,0.076,1.182,0.265,1.489
		c0.187,0.307,0.497,0.464,0.929,0.472c0.435,0.007,0.753-0.139,0.952-0.438c0.199-0.299,0.304-0.793,0.316-1.483l0.073-4.391
		l1.99,0.033l-0.084,5.086c-0.017,0.938-0.313,1.668-0.894,2.189c-0.58,0.521-1.374,0.772-2.383,0.755
		c-1.011-0.017-1.796-0.296-2.357-0.837c-0.563-0.541-0.835-1.28-0.82-2.215l0.086-5.086L131.505,23.735z"/>
	<path style="fill:#3F1865;" d="M149.246,31.107c-0.041,0.257,0.01,0.477,0.153,0.662c0.144,0.184,0.362,0.306,0.657,0.366
		c0.291,0.059,0.534,0.042,0.729-0.051c0.194-0.093,0.314-0.249,0.358-0.467c0.038-0.192-0.011-0.372-0.145-0.542
		c-0.137-0.169-0.446-0.4-0.927-0.695c-0.046-0.027-0.118-0.069-0.217-0.127c-0.56-0.331-0.967-0.639-1.218-0.925
		c-0.223-0.248-0.371-0.533-0.449-0.854c-0.078-0.321-0.08-0.663-0.006-1.027c0.143-0.702,0.5-1.221,1.071-1.558
		c0.572-0.337,1.252-0.425,2.041-0.265c0.869,0.177,1.494,0.518,1.876,1.023c0.382,0.505,0.5,1.143,0.353,1.912l-1.767-0.355
		c0.051-0.289,0.015-0.53-0.112-0.723c-0.126-0.192-0.33-0.318-0.611-0.375c-0.269-0.055-0.495-0.032-0.683,0.067
		c-0.188,0.1-0.305,0.261-0.35,0.482c-0.065,0.317,0.259,0.693,0.97,1.128c0.144,0.088,0.256,0.157,0.335,0.207
		c0.044,0.026,0.108,0.067,0.197,0.124c0.649,0.4,1.083,0.782,1.303,1.144c0.137,0.224,0.224,0.464,0.263,0.718
		c0.038,0.254,0.026,0.525-0.031,0.813c-0.154,0.754-0.537,1.307-1.151,1.657c-0.614,0.351-1.356,0.438-2.228,0.26
		c-0.816-0.167-1.423-0.515-1.816-1.044c-0.394-0.53-0.525-1.173-0.395-1.929L149.246,31.107z"/>
	<path style="fill:#3F1865;" d="M164.252,37.735l2.292-5.887l-1.666-0.648l0.585-1.501l5.183,2.018l-0.584,1.501l-1.662-0.647
		l-2.292,5.887L164.252,37.735z"/>
</g>
<path style="fill:#3F1865;" d="M184.25,42.211c0,0.921-0.746,1.667-1.666,1.667c-0.921,0-1.667-0.746-1.667-1.667
	c0-0.92,0.746-1.666,1.667-1.666C183.504,40.545,184.25,41.291,184.25,42.211z"/>
<path style="fill:#3F1865;" d="M133,224.044c0,0.921-0.746,1.667-1.667,1.667c-0.92,0-1.666-0.746-1.666-1.667
	c0-0.92,0.746-1.666,1.666-1.666C132.254,222.378,133,223.124,133,224.044z"/>
<path style="fill:#3F1865;" d="M197,200.71c0,0.921-0.746,1.667-1.667,1.667s-1.667-0.746-1.667-1.667
	c0-0.92,0.746-1.666,1.667-1.666S197,199.791,197,200.71z"/>
<path style="fill:#3F1865;" d="M84.667,213.044c0,0.921-0.746,1.667-1.667,1.667c-0.921,0-1.667-0.746-1.667-1.667
	c0-0.92,0.746-1.666,1.667-1.666C83.921,211.378,84.667,212.124,84.667,213.044z"/>
<path style="fill:#3F1865;" d="M178.667,213.044c0,0.921-0.746,1.667-1.667,1.667c-0.921,0-1.667-0.746-1.667-1.667
	c0-0.92,0.746-1.666,1.667-1.666C177.921,211.378,178.667,212.124,178.667,213.044z"/>
<path style="fill:#3F1865;" d="M107,221.378c0,0.921-0.746,1.667-1.667,1.667s-1.667-0.746-1.667-1.667
	c0-0.92,0.746-1.666,1.667-1.666S107,220.458,107,221.378z"/>
<path style="fill:#3F1865;" d="M158,221.378c0,0.921-0.746,1.667-1.668,1.667c-0.92,0-1.666-0.746-1.666-1.667
	c0-0.92,0.746-1.666,1.666-1.666C157.254,219.712,158,220.458,158,221.378z"/>
<path style="fill:#3F1865;" d="M67.667,200.71c0,0.921-0.746,1.667-1.667,1.667c-0.921,0-1.667-0.746-1.667-1.667
	c0-0.92,0.746-1.666,1.667-1.666C66.921,199.044,67.667,199.791,67.667,200.71z"/>
</svg>
