<?xml version="1.0" encoding="iso-8859-1"?>
<!-- Generator: Adobe Illustrator 23.0.3, SVG Export Plug-In . SVG Version: 6.00 Build 0)  -->
<svg version="1.1" id="Layer_1" xmlns="http://www.w3.org/2000/svg" xmlns:xlink="http://www.w3.org/1999/xlink" x="0px" y="0px"
	 viewBox="-157.122 245 340.244 512" style="enable-background:new -157.122 245 340.244 512;" xml:space="preserve" width="36px">
<path fill="#888888" d="M183.069,356.866c0,5.062,3.554-9.718-47.525,180.872c-2.83-10.978-1.982,12.769-1.982-195.685
	C148.224,319.725,183.069,330.262,183.069,356.866L183.069,356.866z"/>
<path fill="#888888" d="M117.045,276.381v224.64c-60.098-104.074-33.599-58.207-62.761-108.717V276.381c0-17.301,14.08-31.381,31.381-31.381
	C103.235,245,117.045,259.241,117.045,276.381L117.045,276.381z"/>
<path fill="#888888" d="M80.762,471.199L56.4,446.848c-21.21-21.219-49.105-33.383-82.354-33.383l-55.659-92.821
	c-8.587-14.921-3.563-34.113,11.51-42.818c15.161-8.742,34.291-3.358,42.87,11.489C57.678,430.43,14.224,355.947,80.762,471.199z"/>
<path fill="#888888" d="M125.716,590.383c0,51.551-20.499,101.242-57.115,137.889c-17.868,17.848-41.6,28.046-66.828,28.697
	c-4.02,0,15.471,0.031-43.83,0.031c-63.443,0-115.066-51.613-115.066-115.066V483.379c0-5.161,4.201-9.352,9.363-9.352
	c0.809,0,1.474-0.046,2.467-0.32c2.571,1.021,25.789,0.667,41.497,23.401c10.145,13.555,9.435,29.344,9.435,39.123
	c0,35.334,15.257,68.934,41.837,92.212c28.786,25.196,73.817,4.535,73.817-33.497c-0.01-42.227,1.612-51.959-5.739-68.645
	c-6.579-14.863-14.856-21.281-25.951-31.401c-3.776-3.025,0.883-2.157-76.676-2.157c-10.222-18.175-29.402-31.949-52.253-34.715
	c0.929-8.887,5.701-17.371,13.863-22.823c13.576-6.623-1.58-5.223,101.285-5.223c26.023,0,50.498,10.137,68.903,28.542
	l67.954,67.954l5.141,8.908C122.636,553.078,125.716,569.362,125.716,590.383L125.716,590.383z"/>
</svg>
