<?xml version="1.0" encoding="iso-8859-1"?>
<!-- Generator: Adobe Illustrator 23.0.3, SVG Export Plug-In . SVG Version: 6.00 Build 0)  -->
<svg version="1.1" id="Capa_1" xmlns="http://www.w3.org/2000/svg" xmlns:xlink="http://www.w3.org/1999/xlink" x="0px" y="0px"
	 viewBox="-785 151.317 348.077 347.683" style="enable-background:new -785 151.317 348.077 347.683;" xml:space="preserve">
<g>
	<g>
		<g>
			<path fill="#481268" d="M-444.727,426.006l-53.755-53.761c-10.707-10.664-28.438-10.34-39.518,0.744l-27.082,27.076
				c-1.711-0.943-3.482-1.928-5.344-2.973c-17.102-9.476-40.509-22.464-65.14-47.113c-24.704-24.701-37.704-48.144-47.209-65.257
				c-1.003-1.813-1.964-3.561-2.913-5.221l18.176-18.149l8.936-8.947c11.097-11.1,11.403-28.826,0.721-39.521l-53.755-53.767
				c-10.682-10.68-28.421-10.356-39.518,0.744l-15.15,15.237l0.414,0.411c-5.08,6.482-9.325,13.958-12.484,22.02
				c-2.912,7.674-4.725,14.997-5.554,22.335c-7.098,58.844,19.792,112.623,92.768,185.6
				c100.875,100.868,182.167,93.248,185.674,92.876c7.638-0.913,14.958-2.738,22.397-5.627c7.992-3.122,15.463-7.361,21.941-12.43
				l0.331,0.294l15.348-15.029C-434.369,454.45-434.05,436.718-444.727,426.006z"/>
		</g>
	</g>
</g>
</svg>
