<?xml version="1.0" encoding="iso-8859-1"?>
<!-- Generator: Adobe Illustrator 23.0.3, SVG Export Plug-In . SVG Version: 6.00 Build 0)  -->
<svg version="1.1" id="&#x421;&#x43B;&#x43E;&#x439;_1"
	 xmlns="http://www.w3.org/2000/svg" xmlns:xlink="http://www.w3.org/1999/xlink" x="0px" y="0px"
	 viewBox="-703 29.111 512 391.958" style="enable-background:new -703 29.111 512 391.958;" xml:space="preserve">
<path fill="#481268" d="M-195.226,36.682c-5.016-6.109-13.332-8.375-20.727-5.656l-469.656,169.723c-9.383,3.41-15.969,11.68-17.191,21.582
	c-1.211,9.855,3.133,19.418,11.281,24.922l67.133,45.828c6.504,4.441,14.867,4.918,21.832,1.242l145.625-76.793l-113.496,84.746
	c-5.328,3.98-8.512,10.328-8.512,16.977v78.5c0,8.098,4.441,15.516,11.59,19.367c7.16,3.852,15.809,3.469,22.609-1.016
	l51.004-33.832l50.156,34.199c4.395,3.012,9.629,4.598,14.91,4.598c1.785,0,3.578-0.184,5.344-0.551
	c7.043-1.469,13.273-5.82,17.098-11.938l212.488-350.383C-189.601,51.451-190.195,42.819-195.226,36.682z"/>
</svg>
