<?xml version="1.0" encoding="iso-8859-1"?>
<!-- Generator: Adobe Illustrator 23.0.3, SVG Export Plug-In . SVG Version: 6.00 Build 0)  -->
<svg version="1.1" id="Capa_1" xmlns="http://www.w3.org/2000/svg" xmlns:xlink="http://www.w3.org/1999/xlink" x="0px" y="0px"
	 viewBox="-264 266.659 469.341 469.341" style="enable-background:new -264 266.659 469.341 469.341;" xml:space="preserve" width="45px">
<g>
	<g>
		<g>
			<path fill="#888888" d="M173.337,650.666H98.67c-47.052,0-85.333-38.281-85.333-85.333S51.618,480,98.67,480h74.667
				c5.896,0,10.667-4.771,10.667-10.667v-32c0-22.368-17.35-40.559-39.271-42.323l-61.26-107
				c-5.677-9.896-14.844-16.969-25.813-19.906c-10.917-2.917-22.333-1.385-32.104,4.302l-210.003,122.26h-36.883
				c-23.531,0-42.667,19.135-42.667,42.667v256c0,23.531,19.135,42.667,42.667,42.667h362.667c23.531,0,42.667-19.135,42.667-42.667
				v-32C184.004,655.437,179.233,650.666,173.337,650.666z M96.702,354.07l23.242,40.596H26.973L96.702,354.07z M-142.047,394.666
				L36.295,290.843c4.823-2.823,10.458-3.573,15.844-2.135c5.448,1.458,9.99,4.979,12.813,9.906l0.022,0.039l-164.91,96.013
				H-142.047z"/>
			<path fill="#888888" d="M173.337,501.333H98.67c-35.292,0-64,28.708-64,64s28.708,64,64,64h74.667c17.646,0,32-14.354,32-32v-64
				C205.337,515.687,190.983,501.333,173.337,501.333z M98.67,586.666c-11.76,0-21.333-9.573-21.333-21.333S86.91,544,98.67,544
				s21.333,9.573,21.333,21.333C120.004,577.093,110.431,586.666,98.67,586.666z"/>
		</g>
	</g>
</g>
</svg>
